<svg xmlns="http://www.w3.org/2000/svg" viewBox="0 0 136.1538 100">
    <g fill="#221e1f">
    <path d="M33.5709,86.4712h69.0027l20.0551-20.084V33.6145l-20.0551-20.081H33.5709L13.53,33.6145V66.3872Zm69.5076,1.2211H33.0646L12.3077,66.8947V33.1079l20.7569-20.8h70.0139l20.7677,20.8V66.8947Z"/>
    <path d="M27.7886,0,0,27.5787V72.4074L27.7886,100h80.5831l27.7821-27.5926V27.5787L108.3665,0ZM7.3422,69.3361V30.65L30.8094,7.3613h74.5363L128.8108,30.65v38.686l-23.4651,23.3H30.8094Z"/>
    <path d="M31.863,88.5706h71.6456l21.2156-21.2436V31.9l-21.2156-21.241H31.863L10.6557,31.9V67.3269Zm72.5627,2.1987H30.9541L8.4615,68.24V30.9869L30.9541,8.4615h73.4716l22.4974,22.5254V68.24Z"/>
    <path d="M32.3506,43.7074c0,.4508-.0688,1.258.2918,1.507a5.3772,5.3772,0,0,0,1.9789.29,3.2389,3.2389,0,0,0,3.3218-1.8431,9.3633,9.3633,0,0,0,.9109-4.3535,8.7413,8.7413,0,0,0-1.1169-4.7631,3.5969,3.5969,0,0,0-3.34-1.5276c-.3779,0-1.5836-.0421-1.8732.337-.226.2473-.1732,1.0347-.1732,1.3932ZM30.87,36.43a21.19,21.19,0,0,0-.0857-2.7855c-.1035-.5835-.3961-.826-.8451-.826-.2758,0-.5476.11-.826.11-.3269,0-.5507-.3353-.5507-.7634a.7387.7387,0,0,1,.7407-.8076c.5017.1112,1.4295.1563,2.2377.2456,1.465-.0429,2.6663-.225,3.1841-.2456a4.7916,4.7916,0,0,1,4.2157,2.1093,10.4613,10.4613,0,0,1,1.4962,5.6789,10.9425,10.9425,0,0,1-1.3758,5.6651,4.782,4.782,0,0,1-4.269,2.1986c-.5147-.0232-1.72-.2005-3.1837-.2473-.8091.0923-1.7369.1327-2.236.2473a.7556.7556,0,0,1-.81-.8072c0-.4276.2238-.7625.5507-.7625.2784,0,.55.1091.826.1091.4489,0,.7416-.2482.8451-.8312a21.1481,21.1481,0,0,0,.0857-2.783Z"/>
    <path d="M34.1027,33.3215c-1.1152,0-1.3078.1812-1.339.2185a2.6233,2.6233,0,0,0-.11,1.0227l.0039.1846-.0039,9.1595c-.0052.3027-.0177.9351.16,1.0566a5.1521,5.1521,0,0,0,1.8079.24,2.9522,2.9522,0,0,0,3.0542-1.6856,9.3159,9.3159,0,0,0,.8732-4.21A8.2522,8.2522,0,0,0,37.48,34.713a3.286,3.286,0,0,0-3.0828-1.3915Zm.5186,12.4873a5.4414,5.4414,0,0,1-2.1529-.346c-.4481-.3053-.4368-1.0334-.4247-1.5679l.0022-.1876-.0022-9.1333a2.2014,2.2014,0,0,1,.2524-1.4233c.2238-.2975.7883-.4358,1.8066-.4358h.2944a3.8816,3.8816,0,0,1,3.5958,1.662,8.8558,8.8558,0,0,1,1.17,4.9314,9.9019,9.9019,0,0,1-.952,4.5008,3.544,3.544,0,0,1-3.59,2Zm-3.0235.6487.0234.0026c.9654.027,1.8152.1151,2.4356.18.3208.03.5766.058.7507.0674h.07a4.4978,4.4978,0,0,0,3.9248-2.0591,10.5765,10.5765,0,0,0,1.3295-5.5028,10.052,10.052,0,0,0-1.4433-5.5071,4.4512,4.4512,0,0,0-3.9672-1.9814c-.161.0086-.42.0395-.7463.07-.616.0627-1.4633.1494-2.4239.1782h-.0433c-.2766-.0339-.5684-.0571-.85-.08a13.5691,13.5691,0,0,1-1.3832-.1644c-.1983.0125-.4043.15-.4043.504,0,.2546.1108.46.2437.46a2.0566,2.0566,0,0,0,.3524-.0507,2.2968,2.2968,0,0,1,.4736-.0623c.4338,0,.9879.1863,1.1472,1.0824a16.91,16.91,0,0,1,.09,2.4339l-.0017.4014.0017,5.9051a16.9831,16.9831,0,0,1-.09,2.4386A1.1171,1.1171,0,0,1,29.94,45.8556a2.4188,2.4188,0,0,1-.4736-.0635,1.8,1.8,0,0,0-.3524-.0511c-.1329,0-.2437.2069-.2437.4615a.4526.4526,0,0,0,.471.5053,11.7,11.7,0,0,1,1.38-.1653c.2853-.0253.5766-.0524.8554-.08Zm3.2793.8565h-.0866c-.1948-.0094-.46-.0374-.7979-.07-.6061-.0605-1.4342-.15-2.37-.1782-.2766.0318-.5663.0554-.8468.08a12.0939,12.0939,0,0,0-1.3364.1584l-.0667.0094a1.0541,1.0541,0,0,1-1.1152-1.1116.9581.9581,0,0,1,.8559-1.0682,2.2049,2.2049,0,0,1,.474.0635,2.0544,2.0544,0,0,0,.352.0494c.2286,0,.4524-.07.5429-.58a17.2663,17.2663,0,0,0,.0844-2.3266l-.0035-.4053.0035-5.9116a17.7906,17.7906,0,0,0-.0814-2.324c-.0935-.5083-.3173-.5813-.5459-.5813a1.8128,1.8128,0,0,0-.352.0524,2.3468,2.3468,0,0,1-.474.0605.9587.9587,0,0,1-.8559-1.0656,1.0433,1.0433,0,0,1,1.0459-1.1124l.0693.0047a11.83,11.83,0,0,0,1.3381.1614c.2805.0232.5693.0515.8412.082.9329-.03,1.7568-.1168,2.3611-.1773.3407-.0382.6117-.0661.7979-.0708a5.0775,5.0775,0,0,1,4.48,2.2454,10.6331,10.6331,0,0,1,1.5516,5.8476,11.1335,11.1335,0,0,1-1.4239,5.8192,5.0331,5.0331,0,0,1-4.4421,2.3489Z"/>
    <path d="M45.1131,36.43a21.501,21.501,0,0,0-.0836-2.7855c-.1065-.5835-.3991-.826-.8451-.826-.2775,0-.5541.11-.8251.11-.3286,0-.5524-.3349-.5524-.7634a.7379.7379,0,0,1,.7386-.8072c.468,0,1.43.2456,2.307.2456.8793,0,1.8425-.2456,2.3048-.2456a.7382.7382,0,0,1,.7416.8072c0,.4285-.2238.7634-.5524.7634-.2736,0-.5468-.11-.8247-.11-.4476,0-.7386.2426-.8429.826a20.8973,20.8973,0,0,0-.0849,2.7855v5.505a20.8607,20.8607,0,0,0,.0849,2.783c.1043.583.3953.8312.8429.8312.2779,0,.5511-.1091.8247-.1091.3286,0,.5524.3349.5524.7625a.7392.7392,0,0,1-.7416.8072c-.4624,0-1.4256-.2473-2.3048-.2473-.8767,0-1.839.2473-2.307.2473a.7389.7389,0,0,1-.7386-.8072c0-.4276.2238-.7625.5524-.7625.271,0,.5476.1091.8251.1091.4459,0,.7386-.2482.8451-.8312a21.4634,21.4634,0,0,0,.0836-2.783Z"/>
    <path d="M45.8528,46.4574a10.5551,10.5551,0,0,1,1.5442.1567,6.19,6.19,0,0,0,.76.0936c.213,0,.4368-.1361.4368-.5049,0-.255-.11-.462-.2476-.462a1.8125,1.8125,0,0,0-.3489.0515,2.4751,2.4751,0,0,1-.4753.0631c-.4364,0-.9862-.1868-1.1425-1.0815a15.8909,15.8909,0,0,1-.0939-2.4219l.0039-.4169-.0039-5.9184a15.9259,15.9259,0,0,1,.0939-2.4245c.1563-.893.7061-1.08,1.1425-1.08a2.3174,2.3174,0,0,1,.4753.0627,2.071,2.071,0,0,0,.3489.05c.1377,0,.2476-.2052.2476-.46,0-.3722-.2238-.5075-.4368-.5075a6.0075,6.0075,0,0,0-.76.0932,10.3322,10.3322,0,0,1-1.5442.155,10.3617,10.3617,0,0,1-1.5442-.155,5.908,5.908,0,0,0-.7632-.0932c-.2087,0-.4329.1352-.4329.5075,0,.255.1113.46.2468.46a2.1163,2.1163,0,0,0,.35-.05,2.2972,2.2972,0,0,1,.4749-.0627c.4342,0,.9862.1868,1.1464,1.0828a16.6363,16.6363,0,0,1,.09,2.4279l-.0022.407.0022,5.91a16.7522,16.7522,0,0,1-.09,2.4339c-.16.8947-.7121,1.0815-1.1464,1.0815a2.5165,2.5165,0,0,1-.4779-.0631,1.7867,1.7867,0,0,0-.3472-.0515c-.1355,0-.2468.2069-.2468.462,0,.3688.2243.5049.4329.5049a6.1292,6.1292,0,0,0,.7632-.0936,10.5861,10.5861,0,0,1,1.5442-.1567m2.3044.857a6.281,6.281,0,0,1-.8511-.0979,9.7447,9.7447,0,0,0-1.4533-.1507,9.6452,9.6452,0,0,0-1.4481.1507,6.38,6.38,0,0,1-.8593.0979,1.0441,1.0441,0,0,1-1.0433-1.1116.957.957,0,0,1,.8572-1.0686,2.2735,2.2735,0,0,1,.4736.0635,2.021,2.021,0,0,0,.3515.0494c.226,0,.4507-.07.5424-.58a17.017,17.017,0,0,0,.0827-2.3219l-.0017-.41.0017-5.912a17.29,17.29,0,0,0-.081-2.3219c-.0935-.51-.3182-.583-.5442-.583a1.8152,1.8152,0,0,0-.3515.0519,2.3955,2.3955,0,0,1-.4736.061.9578.9578,0,0,1-.8572-1.066,1.0422,1.0422,0,0,1,1.0433-1.112,6.1153,6.1153,0,0,1,.8572.0979,10.0557,10.0557,0,0,0,1.45.15,10.0979,10.0979,0,0,0,1.4533-.15,6.0794,6.0794,0,0,1,.8511-.0979,1.0434,1.0434,0,0,1,1.0494,1.112.959.959,0,0,1-.86,1.066,2.3533,2.3533,0,0,1-.4723-.061,1.8535,1.8535,0,0,0-.352-.0519c-.2255,0-.45.0726-.54.5813a16.2922,16.2922,0,0,0-.0844,2.3154l.0017.4152-.0017,5.924a16.702,16.702,0,0,0,.0818,2.3124c.0931.51.3173.58.5429.58a2.0477,2.0477,0,0,0,.35-.0494,2.2659,2.2659,0,0,1,.474-.0635.9582.9582,0,0,1,.86,1.0686,1.0453,1.0453,0,0,1-1.0494,1.1116"/>
    <path d="M54.654,43.125c0,2.5413.0177,2.403,2.03,2.403h1.1386a3.3142,3.3142,0,0,0,1.6676-.292c.5853-.3817.571-1.1249.571-1.8616l-.0532-1.9127c0-.5169.1719-.9879.6178-.9879.5009,0,.74.249.74.9025,0,.76-.1372,1.5005-.1372,2.2669,0,.7166.1372,1.39.1372,2.0853-.0883.9677-.4489,1.2816-.9615,1.2816-1.8607-.0683-3.72-.155-5.5764-.2473-1,.0923-1.9641.1322-3.2005.2473a.73.73,0,0,1-.7762-.7608c0-.4281.242-.8089.57-.8089.274,0,.5507.1558.8247.1558.807,0,.9286-.8548.9286-3.661V36.43a21.1853,21.1853,0,0,0-.0857-2.7855c-.1017-.5835-.3944-.826-.8429-.826-.274,0-.5507.11-.8247.11-.3281,0-.5533-.3349-.5533-.7634a.729.729,0,0,1,.6719-.8072c.4667,0,1.43.2456,2.3066.2456.8788,0,1.8425-.2456,2.3053-.2456a.7548.7548,0,0,1,.81.8072c0,.4285-.226.7634-.5507.7634-.2766,0-.55-.11-.8273-.11-.4476,0-.7394.2426-.8451.826A21.4926,21.4926,0,0,0,54.654,36.43Z"/>
    <path d="M51.4206,45.7409c-.1195,0-.2645.225-.2645.5088a.4345.4345,0,0,0,.4706.4581c.6325-.061,1.2139-.1009,1.7685-.1382.4788-.0374.94-.0683,1.4018-.1091l.0208-.003.0234.003c1.7174.082,3.6642.1773,5.57.2473.1844,0,.56-.0094.6511-1.0042-.0039-.3031-.0359-.6273-.068-.9742a10.5538,10.5538,0,0,1-.0723-1.0862c0-.3959.0346-.787.07-1.1639.0346-.38.0667-.738.0667-1.103,0-.5985-.2087-.5985-.4329-.5985-.2961,0-.3121.5684-.3121.6844l.0528,1.97c0,.7462,0,1.5946-.7108,2.0574a3.5041,3.5041,0,0,1-1.833.3426H56.1593c-1.7615,0-1.81-.3864-1.81-2.7074l-.0017-7.0944a16.5232,16.5232,0,0,1,.0922-2.4382c.1572-.893.7074-1.08,1.1442-1.08a2.3214,2.3214,0,0,1,.4753.0627,2.0139,2.0139,0,0,0,.352.05c.1325,0,.2424-.2052.2424-.46a.4586.4586,0,0,0-.5022-.5075,5.8784,5.8784,0,0,0-.7606.0932,7.7723,7.7723,0,0,1-3.0889,0,5.9688,5.9688,0,0,0-.7624-.0932c-.142,0-.3641.14-.3641.5075,0,.255.1091.46.2455.46a2.0757,2.0757,0,0,0,.3494-.05,2.3131,2.3131,0,0,1,.4749-.0627c.4368,0,.987.1868,1.1451,1.0824a16.4992,16.4992,0,0,1,.0926,2.4283v5.912c0,2.6765-.055,3.9654-1.2377,3.9654a1.8766,1.8766,0,0,1-.4987-.0914,1.3339,1.3339,0,0,0-.3256-.0683m8.983,1.5735H60.392c-1.9005-.07-3.8417-.1653-5.5591-.2486-.4624.0429-.9178.0708-1.3957.1065-.55.0391-1.1264.0811-1.784.1421H51.65A1.0446,1.0446,0,0,1,50.5448,46.25a1.0051,1.0051,0,0,1,.8758-1.1154,1.7468,1.7468,0,0,1,.494.09,1.2256,1.2256,0,0,0,.33.0653c.494,0,.623-.6869.623-3.354l.003-5.912a17.207,17.207,0,0,0-.0818-2.3219c-.0935-.51-.3156-.583-.5442-.583a1.83,1.83,0,0,0-.3489.0519,2.4006,2.4006,0,0,1-.4753.061.959.959,0,0,1-.8589-1.066,1.0385,1.0385,0,0,1,.9775-1.112,6.1332,6.1332,0,0,1,.8563.0979,10.0493,10.0493,0,0,0,1.45.15,10.0369,10.0369,0,0,0,1.45-.15,6.1583,6.1583,0,0,1,.8554-.0979,1.056,1.056,0,0,1,1.1148,1.112.9563.9563,0,0,1-.855,1.066,2.38,2.38,0,0,1-.4753-.061,1.8536,1.8536,0,0,0-.352-.0519c-.2277,0-.4507.0726-.542.5813a16.5815,16.5815,0,0,0-.0836,2.3292l.0026.4014v6.6947c0,2.1016,0,2.1016,1.1987,2.1016l1.6628-.0026a3.1541,3.1541,0,0,0,1.4983-.2417c.4347-.2808.4347-.8707.4308-1.55v-.058l-.0489-1.9011c0-.8072.352-1.3048.923-1.3048.6944,0,1.0477.407,1.0477,1.2077,0,.3928-.039.784-.07,1.16-.0359.3778-.0706.7389-.0706,1.1068a9.64,9.64,0,0,0,.0706,1.0291c.0307.34.07.6981.07,1.0566-.0961,1.0618-.5234,1.5855-1.2693,1.5855"/>
    <path d="M67.1747,43.125c0,2.5413.0169,2.403,2.03,2.403h1.1364a3.3249,3.3249,0,0,0,1.6715-.292c.5814-.3817.5628-1.1249.5628-1.8616l-.0476-1.9127c0-.5169.17-.9879.62-.9879.5,0,.7321.249.7321.9025,0,.76-.1333,1.5005-.1333,2.2669,0,.7166.1333,1.39.1333,2.0853-.081.9677-.44,1.2816-.96,1.2816-1.852-.0683-3.7149-.155-5.5716-.2473-.9983.0923-1.9628.1322-3.2005.2473a.7311.7311,0,0,1-.7762-.7608c0-.4281.2394-.8089.5658-.8089.2766,0,.552.1558.8269.1558.8113,0,.9325-.8548.9325-3.661V36.43a21.33,21.33,0,0,0-.0874-2.7855c-.1043-.5835-.397-.826-.8451-.826-.2749,0-.55.11-.8269.11-.3264,0-.5507-.3349-.5507-.7634a.7317.7317,0,0,1,.6736-.8072c.4632,0,1.426.2456,2.3044.2456s1.8425-.2456,2.3074-.2456a.754.754,0,0,1,.8074.8072c0,.4285-.2217.7634-.5494.7634-.2766,0-.5515-.11-.8256-.11-.4468,0-.7412.2426-.842.826a20.6686,20.6686,0,0,0-.0875,2.7855Z"/>
    <path d="M63.9368,45.7409c-.1173,0-.258.225-.258.5088a.4324.4324,0,0,0,.4688.4581c.6312-.061,1.2139-.1009,1.7624-.1382.4857-.0374.9446-.0683,1.4061-.1091l.0212-.003.0229.003c1.7161.082,3.66.1752,5.5651.2473.203,0,.5641-.0094.6511-1.0042,0-.3031-.0286-.6273-.0623-.9742a10.4381,10.4381,0,0,1-.0714-1.0862c0-.3959.0355-.787.0714-1.1639.0338-.38.0623-.738.0623-1.103,0-.5985-.2091-.5985-.4295-.5985-.297,0-.316.5684-.316.6844l.0507,1.972c0,.7475,0,1.5958-.7039,2.0557a3.515,3.515,0,0,1-1.8364.3426h-1.662c-1.7624,0-1.8113-.3864-1.8113-2.7074l-.003-7.0961a16.6363,16.6363,0,0,1,.0944-2.4365,1.112,1.112,0,0,1,1.1451-1.08,2.2724,2.2724,0,0,1,.4732.0627,2.1035,2.1035,0,0,0,.352.05c.1377,0,.245-.2052.245-.46a.4594.4594,0,0,0-.5026-.5075,5.9876,5.9876,0,0,0-.7632.0932,7.7659,7.7659,0,0,1-3.0876,0,5.9273,5.9273,0,0,0-.7611-.0932c-.1385,0-.3632.14-.3632.5075,0,.255.1074.46.24.46a2.1518,2.1518,0,0,0,.3576-.05,2.2623,2.2623,0,0,1,.47-.0627c.4372,0,.9879.1868,1.1459,1.0824a16.4339,16.4339,0,0,1,.0913,2.4219v5.9184c0,2.6765-.0507,3.9654-1.2373,3.9654a1.87,1.87,0,0,1-.4987-.0914,1.3036,1.3036,0,0,0-.3286-.0683m8.9826,1.5735h-.013c-1.8949-.07-3.8391-.1653-5.5539-.2486-.4637.0429-.9174.0708-1.397.1065-.5472.0391-1.1247.0811-1.7814.1421h-.003A1.0459,1.0459,0,0,1,63.0636,46.25a1.0072,1.0072,0,0,1,.8732-1.1154,1.8081,1.8081,0,0,1,.5.09,1.1976,1.1976,0,0,0,.3269.0653c.4948,0,.623-.6869.623-3.354l.0026-5.92a16.5771,16.5771,0,0,0-.081-2.3137c-.0939-.51-.3134-.583-.5446-.583a1.8671,1.8671,0,0,0-.35.0519,2.4016,2.4016,0,0,1-.4771.061.9591.9591,0,0,1-.8554-1.066,1.0389,1.0389,0,0,1,.9788-1.112,6.123,6.123,0,0,1,.8554.0979,7.0652,7.0652,0,0,0,2.8988,0,6.2122,6.2122,0,0,1,.8576-.0979,1.0572,1.0572,0,0,1,1.1161,1.112.9581.9581,0,0,1-.8585,1.066,2.333,2.333,0,0,1-.4723-.061,1.9024,1.9024,0,0,0-.3528-.0519c-.2277,0-.452.0726-.5429.5813a16.5186,16.5186,0,0,0-.081,2.3236v7.1017c0,2.1016,0,2.1016,1.1987,2.1016l1.662-.0026a3.1244,3.1244,0,0,0,1.5018-.2417c.429-.2808.429-.8634.429-1.5482v-.06l-.0507-1.9011c0-.8072.3537-1.3048.9256-1.3048.6927,0,1.0429.407,1.0429,1.2077,0,.3928-.0377.784-.0719,1.1562-.0281.3817-.0636.7428-.0636,1.1107,0,.3491.0355.6942.0636,1.0291a10.5656,10.5656,0,0,1,.0719,1.0566c-.09,1.0618-.5195,1.5855-1.2706,1.5855"/>
    <path d="M79.6777,42.5623l.0468,1.5727c0,1.4808.5368,1.3249,1.4511,1.3249h2.0252c1.2381,0,2.0646-.02,2.0646-1.9531l-.032-2.0213c0-.5405.1411-1.0566.6212-1.0566.4966,0,.6715.45.6715,1.033v4.5149c0,.6745-.3632,1.0566-.8637,1.033-1.8555-.0678-3.7131-.1546-5.5686-.2473-1.0013.0927-1.965.1327-3.2031.2473-.64,0-1.0013-.27-1.0013-.8072,0-.4276.2277-.7625.5533-.7625.2749,0,.5533.1095.8264.1095.4476,0,.7394-.2486.8373-.8316a20.8454,20.8454,0,0,0,.0883-2.783V36.43a20.8866,20.8866,0,0,0-.0883-2.7855c-.0978-.5835-.39-.826-.8373-.826-.2732,0-.5515.11-.8264.11-.3256,0-.5533-.3353-.5533-.7634a.7392.7392,0,0,1,.7433-.8076c1.2364.1112,2.2022.1563,3.1958.2456,1.8667-.0893,3.7222-.1829,5.5777-.2456.5818,0,.9169.2688.9169,1.0764,0,.8342-.1416,1.64-.1416,2.4721,0,.7642.1416,1.4808.1416,2.2235,0,.492-.2823.8505-.6606.8505-.723,0-.6342-1.01-.6342-1.6633,0-.85.1035-2.1763-.3766-2.85a1.2475,1.2475,0,0,0-.9165-.4062l-1.8217-.067a3.7824,3.7824,0,0,0-1.9269.3164c-.3784.334-.3087,1.0785-.3087,1.5958v1.8187c0,.29-.032.811.1507.99.2087.1988.7585.1558,1.0031.1558.5459,0,1.4771.02,1.4771-1.0107,0-.4731-.1035-.9669-.1035-1.4379,0-.5161.1866-.9467.623-.9467.4667,0,.6511.4736.6511,1.0343-.07,1.0785-.139,2.2051-.2069,3.3239.068,1.08.1372,2.1557.2069,3.2114-.032.4963-.2784.7848-.6325.7848-.4853,0-.6416-.3782-.6416-.9643,0-.49.1035-.987.1035-1.4838,0-1.0536-.7905-.9875-1.3793-.9875-.2559,0-.8355-.0661-1.0819.182-.2394.2456-.17.9669-.17,1.3254Z"/>
    <path d="M80.0806,46.4574l.0225.003c1.7256.082,3.6755.1773,5.5742.2473l.0281.3023v-.3023c.4762,0,.5173-.5573.5173-.7307V41.4621c0-.7282-.28-.7282-.3684-.7282-.271,0-.3147.4688-.3147.7513l.0359,2.014c0,2.2669-1.1516,2.2669-2.375,2.2669l-2.4689.0026c-.826,0-1.3083-.264-1.3083-1.6341l-.0528-1.5611V40.9022a1.8991,1.8991,0,0,0-.0074-.1971,1.98,1.98,0,0,1,.2636-1.3391,1.3033,1.3033,0,0,1,.9373-.2829c.0862,0,.1636.003.239.0056.0468,0,.0944.0069.126.0069h.2087c.4446,0,1.4814,0,1.4814,1.2867a6.9019,6.9019,0,0,1-.0584.7737c-.0242.2482-.0472.48-.0472.71,0,.6646.1957.6646.3333.6646.25,0,.3069-.295.3256-.4852l-.203-3.1938.203-3.36c0-.1511-.0225-.711-.3442-.711-.3035,0-.3147.5319-.3147.641a6.8463,6.8463,0,0,0,.0472.6844,6.6271,6.6271,0,0,1,.0584.7539c0,1.3112-1.2516,1.3112-1.7182,1.3112l-.361.0056a1.3377,1.3377,0,0,1-.9191-.2482,1.4826,1.4826,0,0,1-.25-1.0918V34.7009a2.0553,2.0553,0,0,1,.4108-1.6173,3.2992,3.2992,0,0,1,1.9421-.3916h.19l1.8356.0661a1.5355,1.5355,0,0,1,1.1533.5337,4.6741,4.6741,0,0,1,.4351,2.6417v.3838l-.0061.1966c-.0039.37-.0113.93.17,1.1077a.1987.1987,0,0,0,.1619.0562c.2048,0,.35-.23.35-.5478,0-.3564-.0359-.7037-.0641-1.0695-.0338-.3731-.0753-.7569-.0753-1.1545,0-.43.0416-.8509.0753-1.2614.0281-.3958.0641-.8093.0641-1.2107,0-.7174-.26-.7762-.6061-.7762-1.7858.0661-3.6135.1558-5.3824.24l-.2.0086h-.0186c-.4632-.0408-.9295-.0756-1.4135-.1082-.5455-.0382-1.1312-.0756-1.7875-.14-.1866,0-.4069.1352-.4069.5075,0,.255.1091.46.245.46a2.1537,2.1537,0,0,0,.3537-.05,2.233,2.233,0,0,1,.4723-.0627c.4368,0,.9823.1868,1.1407,1.0828a14.8837,14.8837,0,0,1,.0935,2.4335v6.3065a14.9928,14.9928,0,0,1-.0935,2.4408c-.1584.8926-.7039,1.0794-1.1407,1.0794a2.4613,2.4613,0,0,1-.4762-.0631,1.8015,1.8015,0,0,0-.35-.0515c-.1359,0-.245.2069-.245.462,0,.15,0,.5049.6927.5049.6342-.061,1.2156-.1009,1.7693-.1382.4758-.0374.939-.0678,1.4018-.1091Zm5.6249.857h-.0524c-1.8992-.07-3.84-.1653-5.56-.2486-.4611.0434-.9147.0713-1.3944.1065-.5459.0391-1.1239.0811-1.7806.1421h-.0035c-.8455,0-1.3308-.419-1.3308-1.1116a.9559.9559,0,0,1,.8585-1.0686,2.2339,2.2339,0,0,1,.4723.0635,2.0325,2.0325,0,0,0,.3537.0494c.2277,0,.4476-.07.54-.5783a17.4005,17.4005,0,0,0,.0849-2.3287V36.0232a17.28,17.28,0,0,0-.0849-2.3219c-.0922-.51-.3121-.583-.54-.583a1.8262,1.8262,0,0,0-.3537.0519,2.3534,2.3534,0,0,1-.4723.061.9567.9567,0,0,1-.8585-1.066,1.0422,1.0422,0,0,1,1.0481-1.112c.6831.06,1.2611.1,1.8048.137.48.0348.9394.0691,1.3988.1112l.158-.0094c1.7689-.0842,3.5962-.1739,5.4028-.2387.8191,0,1.2273.4667,1.2273,1.3808,0,.43-.0377.8531-.07,1.2627-.032.3958-.0658.8054-.0658,1.2094,0,.3688.0338.741.0658,1.1.032.3628.07.74.07,1.1244a1.0345,1.0345,0,0,1-.9615,1.1532.8247.8247,0,0,1-.6-.2357,2.1931,2.1931,0,0,1-.3407-1.5392v-.1911c0-.1215.0052-.2537.0052-.3928A4.5019,4.5019,0,0,0,84.4,33.6408a.9387.9387,0,0,0-.687-.2743l-1.9893-.0683a2.8879,2.8879,0,0,0-1.5377.2417c-.2238.1962-.2087.7475-.2048,1.1515v2.151a1.9081,1.9081,0,0,0,.0654.6526c.01.0064.0926.0756.4935.0756l.361-.0056c.7472,0,1.1009-.1073,1.1009-.7045,0-.2224-.0242-.45-.0472-.6878a6.627,6.627,0,0,1-.0563-.75c0-.7586.3632-1.2464.93-1.2464.587,0,.9541.5109.9541,1.334l-.2035,3.342.2035,3.1938v.0232c-.0416.6466-.4121,1.0673-.9355,1.0673-.4329,0-.9485-.22-.9485-1.27a6.9268,6.9268,0,0,1,.0563-.7707c.0229-.2494.0472-.4779.0472-.7131,0-.6122-.2745-.6814-.8641-.6814h-.2087a1.3218,1.3218,0,0,1-.1507-.0064c-.0658,0-.1411-.0026-.2143-.0026-.3637,0-.465.0678-.4935.0957-.1126.1151-.0935.6861-.0935.9033.0039.0786.0039.15.0039.2112v1.66l.0524,1.5611c0,1.0386.203,1.0386.6983,1.0386l.4437-.0043h2.0252c1.2122,0,1.7633,0,1.7633-1.6512L84.93,41.4908c0-1.2326.6455-1.3662.9243-1.3662.2935,0,.9788.1318.9788,1.3374V45.977c0,.8024-.452,1.3374-1.1278,1.3374Z"/>
    <path d="M101.5294,42.1135c-.623-1.0751-1.1256-2.2231-1.69-3.3467a3.71,3.71,0,0,0-2.1005,3.5957c0,1.8187.9147,2.9611,2.2854,2.9611a2.7417,2.7417,0,0,0,2.3429-1.704Zm.7394-8.3541c0-.9008-.5359-1.5267-1.223-1.5267-.723,0-1.2572.4933-1.2572,1.5031a7.78,7.78,0,0,0,.7922,2.8062,3.1685,3.1685,0,0,0,1.6879-2.7825Zm7.2007,5.0263a.6855.6855,0,0,1-.8208-.7591c0-.9647-.5117-1.5031-1.2381-1.5031-.826,0-1.2892.8072-1.649,1.6813l-1.0009,3.1479a16.4374,16.4374,0,0,1-.6888,2.0625c.7754,1.1476,1.4719,2.0475,2.714,2.0475a2.52,2.52,0,0,0,1.8516-1.917c.0113-.0575.4238-1.0553.7663-1.0321.3667.0189.736.0747.613.9931a4.3842,4.3842,0,0,1-1.1044,2.4125,2.3219,2.3219,0,0,1-1.3117.936h-1.24a2.6957,2.6957,0,0,1-1.9269-.5637,7.1458,7.1458,0,0,1-1.2213-1.3464,3.8966,3.8966,0,0,1-3.3728,2.0419c-2.0685,0-3.6174-1.8174-3.6174-4.56,0-2.6743,1.2065-3.9065,2.9495-5.0962a10.7034,10.7034,0,0,1-.8619-3.7292,3.28,3.28,0,0,1,.8074-2.1321,2.4682,2.4682,0,0,1,1.8425-.7634,2.6347,2.6347,0,0,1,2.7326,2.9654,5.4468,5.4468,0,0,1-2.5425,4.3088l1.9572,3.84.1225.2044.1857-.6483.5329-1.844c.6078-2.1355,1.549-4.5149,3.5642-4.5149a2.4853,2.4853,0,0,1,2.43,2.8731c-.0186.4388.1394.51-.4723.8952Z"/>
    <path d="M101.0457,32.5358c-.6134,0-.95.4276-.95,1.2a6.4618,6.4618,0,0,0,.6247,2.3536,2.7838,2.7838,0,0,0,1.24-2.33c0-.7093-.3875-1.2236-.9143-1.2236Zm-.6134,4.4458-.1957-.47a7.513,7.513,0,0,1-.7511-2.7757c0-1.3314.8018-1.8067,1.56-1.8067a1.6613,1.6613,0,0,1,1.5247,1.83,3.5111,3.5111,0,0,1-1.8356,3.0457Zm-.7342,2.1939a3.4741,3.4741,0,0,0-1.6524,3.187c0,1.6405.7585,2.6589,1.9784,2.6589a2.3835,2.3835,0,0,0,1.9983-1.4l-.76-1.3606c-.416-.7118-.7831-1.4713-1.129-2.2042-.1411-.2919-.29-.5869-.4351-.881Zm.326,6.456c-1.5754,0-2.5953-1.282-2.5953-3.269a3.9971,3.9971,0,0,1,2.2845-3.8718l.2671-.1176.1338.2593c.1918.3864.3823.7745.57,1.1609.3424.7252.7039,1.4718,1.1048,2.17l.9277,1.6469-.0714.1438a3.0414,3.0414,0,0,1-2.6213,1.8775Zm.9351-14.6207a2.1709,2.1709,0,0,0-1.6148.6646,2.9118,2.9118,0,0,0-.7321,1.926,9.76,9.76,0,0,0,.7546,3.3712l.1658.4757-.1883.1318c-1.7823,1.2193-2.8118,2.4039-2.8118,4.8468,0,2.5086,1.3607,4.2573,3.3066,4.2573a3.59,3.59,0,0,0,3.1092-1.896l.239-.3958.2749.3722a6.6462,6.6462,0,0,0,1.1611,1.2927,2.3677,2.3677,0,0,0,1.6957.4886l.0468.0021h1.2351a2.1922,2.1922,0,0,0,1.07-.8213,4.0817,4.0817,0,0,0,1.0433-2.2622c.0524-.4263-.019-.5526-.0416-.583a.4507.4507,0,0,0-.2563-.0683,2.3809,2.3809,0,0,0-.4814.808,2.7653,2.7653,0,0,1-2.1494,2.1475c-1.3871,0-2.1624-.9875-2.9642-2.1819l-.0978-.1391.07-.1558a14.0183,14.0183,0,0,0,.57-1.6684l.1035-.3585,1.0013-3.1522c.3931-.9463.92-1.8934,1.9421-1.8934.9412,0,1.5455.71,1.5455,1.8075,0,.31.158.4852.4043.4671.284-.1808.284-.2022.2788-.3692a1.7959,1.7959,0,0,1-.01-.2426,2.5845,2.5845,0,0,0-.6377-1.9625,2.0428,2.0428,0,0,0-1.4793-.6011c-1.82,0-2.701,2.2982-3.2651,4.2955l-.92,3.1694-.484-.8084L100.76,37.8905l.2035-.152a5.1851,5.1851,0,0,0,2.4217-4.0667,2.3437,2.3437,0,0,0-2.4256-2.661Zm-1.12,16.28c-2.3053,0-3.9183-2.0016-3.9183-4.864a5.7437,5.7437,0,0,1,2.8832-5.2147l-.019-.0391a10.2887,10.2887,0,0,1-.7862-3.5717,3.5712,3.5712,0,0,1,.8922-2.3356,2.7512,2.7512,0,0,1,2.068-.8634,2.9314,2.9314,0,0,1,3.043,3.2694,5.5751,5.5751,0,0,1-2.4689,4.3943l1.613,3.1526.5134-1.7723c.6156-2.2016,1.6169-4.7335,3.8525-4.7335a2.6273,2.6273,0,0,1,1.9156.7848,3.1863,3.1863,0,0,1,.8169,2.4043c0,.0734.0039.1361.0039.1872.0186.4173-.0623.6075-.6234.9527l-.1.0412a.9848.9848,0,0,1-1.187-1.0562c0-.7543-.3429-1.2013-.9282-1.2013-.5273,0-.9355.4444-1.3719,1.495l-1.0875,3.4708a15.231,15.231,0,0,1-.5312,1.5941c.7134,1.0467,1.3234,1.7749,2.3659,1.7749a2.2721,2.2721,0,0,0,1.549-1.6538c.0039-.0159.4251-1.3,1.0572-1.3a.9815.9815,0,0,1,.7515.2885,1.3613,1.3613,0,0,1,.1766,1.0489,4.6078,4.6078,0,0,1-1.1762,2.5709,2.4683,2.4683,0,0,1-1.5429,1.0407h-1.2987a2.9415,2.9415,0,0,1-2.0516-.6234,6.4727,6.4727,0,0,1-1.0217-1.06,4.154,4.154,0,0,1-3.39,1.8187Z"/>
    <path d="M31.6325,53.0786c.084-.1138.3429-.36.3429-.5654,0-.2014-.2026-.2456-.3256-.2456-.3615,0-.74.0884-1.24.0884-.326,0-.55-.3366-.55-.7612,0-.5392.3645-.8072,1.2035-.8072.468,0,1.43.2443,2.3074.2443.8749,0,1.8395-.2443,2.3044-.2443a.7383.7383,0,0,1,.7394.8072c0,.4246-.2247.7612-.55.7612-.5676,0-.84-.0678-1.1169-.0678-.5017,0-.7922.38-1.1529.79l-3.046,3.2982c-.0866.1138-.3606.3585-.3606.5654a2.033,2.033,0,0,0,.2563.6213l.2909.5453L33.56,63.1127l.8606,1.3958c.242.334.3957.4688.7567.4688.2411,0,.4979-.1082.894-.1082.3264,0,.5533.3357.5533.7612a.7413.7413,0,0,1-.7416.808c-.4645,0-1.4282-.2482-2.307-.2482-.8754,0-1.8386.2482-2.3048.2482-.9113,0-1.2749-.27-1.2749-.808,0-.4255.2281-.7612.5524-.7612.652,0,1.1013.0854,1.549.0854.1186,0,.4308,0,.4308-.246a1.6816,1.6816,0,0,0-.2775-.6311l-3.062-5.4088c-.0329-.0859-.2052-.407-.31-.407-.0874,0-.3087.2688-.3792.3585l-1.72,1.96v.784a20.6589,20.6589,0,0,0,.0874,2.7843c.1017.5826.3944.8291.84.8291.2766,0,.5507-.1082.8273-.1082.3256,0,.55.3357.55.7612a.7391.7391,0,0,1-.7386.808c-.4641,0-1.4273-.2482-2.3061-.2482s-1.8438.2482-2.3057.2482a.741.741,0,0,1-.7425-.808c0-.4255.2243-.7612.5507-.7612.2766,0,.5524.1082.829.1082.4459,0,.7394-.2464.842-.8291a20.9474,20.9474,0,0,0,.0874-2.7843V55.8616a20.8879,20.8879,0,0,0-.0874-2.783c-.1026-.5878-.3961-.8342-.842-.8342-.2766,0-.5524.1116-.829.1116-.3264,0-.5507-.3366-.5507-.7612a.7393.7393,0,0,1,.7425-.8072c.4619,0,1.4256.2443,2.3057.2443s1.8421-.2443,2.3061-.2443a.7374.7374,0,0,1,.7386.8072c0,.4246-.2247.7612-.55.7612-.2766,0-.5507-.1116-.8273-.1116-.4459,0-.7386.2464-.84.8342a20.6007,20.6007,0,0,0-.0874,2.783v2.5812Z"/>
    <path d="M33.5758,65.8879a10.2126,10.2126,0,0,1,1.5468.1567,5.9788,5.9788,0,0,0,.7606.09c.2087,0,.4346-.1344.4346-.504,0-.2537-.1139-.4611-.2468-.4611a2.3788,2.3788,0,0,0-.4966.0618,2.2679,2.2679,0,0,1-.397.05,1.1234,1.1234,0,0,1-1.007-.5994l-.8723-1.4108-3.1213-5.5582a.8346.8346,0,0,0-.0558-.1,1.6647,1.6647,0,0,1-.2377-.67,1.0879,1.0879,0,0,1,.352-.67c.0264-.0339.0515-.06.0658-.0786l3.15-3.4175a1.737,1.737,0,0,1,1.2957-.79,3.6934,3.6934,0,0,1,.3922.0275,7,7,0,0,0,.7247.04c.1346,0,.245-.2057.245-.46,0-.374-.2243-.5088-.4342-.5088a6.1348,6.1348,0,0,0-.7632.0923,10.2759,10.2759,0,0,1-1.5412.1567,10.3476,10.3476,0,0,1-1.5442-.1567,6.0792,6.0792,0,0,0-.7632-.0923c-.8983,0-.8983.3186-.8983.5088,0,.2542.1108.46.2446.46a5.937,5.937,0,0,0,.6866-.05,5.4176,5.4176,0,0,1,.5537-.0391.5678.5678,0,0,1,.6321.5478,1.13,1.13,0,0,1-.3472.6758c-.0234.0258-.0433.05-.0593.0687l-5.4019,5.9785-.0022-3.7777a16.4033,16.4033,0,0,1,.0944-2.4378,1.11,1.11,0,0,1,1.142-1.0785,2.3194,2.3194,0,0,1,.4753.0623,2.1024,2.1024,0,0,0,.352.05c.1338,0,.2455-.2057.2455-.46,0-.374-.2247-.5088-.4338-.5088a5.99,5.99,0,0,0-.76.0923,10.4316,10.4316,0,0,1-1.5459.1567,10.3538,10.3538,0,0,1-1.5464-.1567,6.0754,6.0754,0,0,0-.7589-.0923c-.2139,0-.4377.1348-.4377.5088,0,.2542.1108.46.2455.46a2.019,2.019,0,0,0,.352-.05,2.3487,2.3487,0,0,1,.4771-.0623c.4346,0,.9845.1872,1.1412,1.0824a16.47,16.47,0,0,1,.0952,2.4339l-.0017.4027.0017,5.9021a16.5789,16.5789,0,0,1-.0952,2.4391,1.11,1.11,0,0,1-1.1412,1.0789,2.316,2.316,0,0,1-.4753-.0618,1.8686,1.8686,0,0,0-.3537-.05c-.1346,0-.2455.2074-.2455.4611,0,.37.2238.504.4377.504a6.0559,6.0559,0,0,0,.7589-.09,10.2415,10.2415,0,0,1,1.5464-.1567,10.3175,10.3175,0,0,1,1.5459.1567,5.9737,5.9737,0,0,0,.76.09c.2091,0,.4338-.1344.4338-.504,0-.2537-.1117-.4611-.2455-.4611a1.833,1.833,0,0,0-.352.05,2.3481,2.3481,0,0,1-.4753.0618c-.4338,0-.987-.1885-1.142-1.0828a16.29,16.29,0,0,1-.0944-2.43l.0022-1.3048L28.27,58.426c.3546-.4628.5269-.4628.61-.4628.326,0,.5385.4628.5875.571l3.05,5.3994a1.4146,1.4146,0,0,1,.3178.775c0,.1644-.0723.5483-.7368.5483a6.4621,6.4621,0,0,1-.6537-.0373,8.9614,8.9614,0,0,0-.8953-.05c-.1364,0-.2472.2074-.2472.4611,0,.1885,0,.504.97.504a6.0924,6.0924,0,0,0,.7628-.09,10.217,10.217,0,0,1,1.5416-.1567m2.3074.8548a6.4332,6.4332,0,0,1-.8572-.097,9.1007,9.1007,0,0,0-1.45-.1511,9.1961,9.1961,0,0,0-1.449.1511,6.9983,6.9983,0,0,1-.8554.097c-1.0472,0-1.5819-.3752-1.5819-1.1124a.9576.9576,0,0,1,.8589-1.0678c.371,0,.6788.03.95.0524.2212.0206.41.0373.5992.0373.0433,0,.0792-.0039.1091-.0039a2.0055,2.0055,0,0,0-.2134-.4027l-3.0884-5.4685a.5448.5448,0,0,0-.0528-.0975,1.2327,1.2327,0,0,0-.1061.1271l-1.6611,1.8814-.0017,1.0862a16.42,16.42,0,0,0,.0836,2.3219c.09.5075.3156.5749.5411.5749a1.8047,1.8047,0,0,0,.352-.0485,2.5359,2.5359,0,0,1,.4753-.06c.4979,0,.8572.4521.8572,1.0678a1.047,1.047,0,0,1-1.0455,1.1124,7.1122,7.1122,0,0,1-.8563-.097,9.1588,9.1588,0,0,0-1.45-.1511,9.2191,9.2191,0,0,0-1.4542.1511,6.3217,6.3217,0,0,1-.8511.097A1.046,1.046,0,0,1,22.6875,65.63a.9546.9546,0,0,1,.8554-1.0678,2.4772,2.4772,0,0,1,.4753.06,1.8666,1.8666,0,0,0,.3537.0485c.2268,0,.4476-.0674.5381-.5749a15.9232,15.9232,0,0,0,.0849-2.3274v-6.31A15.864,15.864,0,0,0,24.91,53.131c-.09-.5131-.3113-.5822-.5381-.5822a1.8184,1.8184,0,0,0-.352.0464,2.1526,2.1526,0,0,1-.4771.0653.9556.9556,0,0,1-.8554-1.0656,1.045,1.045,0,0,1,1.0477-1.1141,6.5361,6.5361,0,0,1,.8563.0992,9.9629,9.9629,0,0,0,1.449.149,10.0441,10.0441,0,0,0,1.45-.149,6.456,6.456,0,0,1,.8563-.0992,1.046,1.046,0,0,1,1.0455,1.1141.9573.9573,0,0,1-.8572,1.0656,2.1691,2.1691,0,0,1-.4753-.0653,1.793,1.793,0,0,0-.352-.0464c-.2255,0-.4507.0691-.5411.5783a16.426,16.426,0,0,0-.0836,2.3253l.0017,2.2008,4.3175-4.7781a.8018.8018,0,0,1,.07-.082,2.5662,2.5662,0,0,0,.1732-.2237,4.6588,4.6588,0,0,0-.4818.0369,5.6929,5.6929,0,0,1-.7537.0541.9555.9555,0,0,1-.8546-1.0656c0-.5088.2606-1.1141,1.5083-1.1141a6.4324,6.4324,0,0,1,.8576.0992,10.0441,10.0441,0,0,0,1.45.149A10.0826,10.0826,0,0,0,34.82,50.58a6.4481,6.4481,0,0,1,.855-.0992A1.0429,1.0429,0,0,1,36.72,51.5948a.9562.9562,0,0,1-.8563,1.0656,7.0626,7.0626,0,0,1-.7883-.0425c-.1225-.0116-.2242-.0245-.3286-.0245-.3065,0-.5069.2074-.8355.5839l-.09.1009-3.0486,3.3055a.9011.9011,0,0,1-.08.0914,1.0694,1.0694,0,0,0-.1974.2726,1.9762,1.9762,0,0,0,.1671.3752c.0255.0524.0472.0859.0615.1133l.2823.5268,2.8213,5,.8511,1.3868c.213.2894.287.3211.4992.3211a1.5486,1.5486,0,0,0,.2753-.0356,3.0828,3.0828,0,0,1,.6182-.073c.497,0,.8585.4521.8585,1.0678a1.0465,1.0465,0,0,1-1.0464,1.1124"/>
    <path d="M42.8634,58.8219c-.1593.6084-.1065.5856.3775.5856h2.323c.1026,0,.41.0674.41-.179a1.6608,1.6608,0,0,0-.0671-.4066l-1.5156-6.0605Zm.1706,2.1166c-.57,0-.74,0-.9667.7835l-.5147,1.7732a2.7709,2.7709,0,0,0-.1364.7651c0,.5375.26.717.6511.717.3281,0,.6368-.1082,1.1026-.1082.3269,0,.5507.3357.5507.7612a.7391.7391,0,0,1-.7386.808c-.4658,0-1.4295-.2482-2.3044-.2482-.8788,0-1.8425.2482-2.3074.2482a.7435.7435,0,0,1-.5485-.808c0-.4255.22-.7612.5485-.7612.3446,0,.5654.0854.7723.0854.2758,0,.4134-.179.5347-.4718a10.1356,10.1356,0,0,0,.4641-1.4147l3.1495-11.0692c.242-.8321.4485-1.2112,1.1884-1.2112.7057,0,.91.4006,1.1351,1.2112L48.661,62.9353a8.1913,8.1913,0,0,0,.4805,1.4593c.242.4744.4472.5826.86.5826.226,0,.4645-.0674.878-.1082.3282,0,.5524.3357.5524.7612a.741.741,0,0,1-.7425.808c-.4619,0-1.4295-.2482-2.3048-.2482-.8784,0-1.8395.2482-2.3053.2482-.6208,0-.9823-.27-.9823-.808,0-.4255.2251-.7612.5507-.7612.55.0167.8619.1082,1.1706.1082a.5545.5545,0,0,0,.55-.6049,6.3453,6.3453,0,0,0-.203-.8771l-.4671-1.71c-.2935-.9368-.2762-.8471-.997-.8471Z"/>
    <path d="M43.2407,59.1053h2.3235a.6556.6556,0,0,1,.081.0039h.0121a2.0211,2.0211,0,0,0-.0472-.21l-1.22-4.8824L43.1558,58.9c-.0091.0395-.0312.1271-.0489.2057h.1338Zm2.4871.6161c-.0472,0-.0922-.0077-.13-.0077H43.1467a.6583.6583,0,0,1-.5762-.1829c-.1563-.1979-.09-.4534-.0048-.78l1.53-6.064.5927.0021,1.5161,6.0618a2.0011,2.0011,0,0,1,.0771.4779.4924.4924,0,0,1-.5541.4929ZM38.37,65.1692c-.1351,0-.2433.2069-.2433.4611,0,.3679.2152.4963.2554.504a6.1841,6.1841,0,0,0,.7481-.09,10.219,10.219,0,0,1,1.5472-.1567,10.165,10.165,0,0,1,1.5412.1567,6.18,6.18,0,0,0,.7632.09c.21,0,.4338-.1344.4338-.504,0-.2542-.11-.4611-.2455-.4611a3.1334,3.1334,0,0,0-.6.0618,3.4536,3.4536,0,0,1-.503.05.8974.8974,0,0,1-.9611-1.021,2.5259,2.5259,0,0,1,.1195-.72l.0294-.1172.5191-1.7865c.2619-.9184.5524-1.0038,1.2594-1.0038l2.9581-.0039c.6654,0,.7511.2688,1.0018,1.0712l.4654,1.7169a4.64,4.64,0,0,1,.2186.9557.8547.8547,0,0,1-.8593.9089,3.5389,3.5389,0,0,1-.5035-.05c-.19-.0223-.4009-.0507-.6792-.0618-.1208,0-.2307.2069-.2307.4611,0,.1494,0,.504.6749.504a6.2023,6.2023,0,0,0,.7619-.09,10.1369,10.1369,0,0,1,1.5433-.1567,10.1592,10.1592,0,0,1,1.5412.1567,6.2175,6.2175,0,0,0,.7632.09c.21,0,.4338-.1344.4338-.504,0-.2593-.1065-.4611-.2437-.4611-.1429.0167-.2849.0395-.4082.0618a3.4,3.4,0,0,1-.47.05,1.1154,1.1154,0,0,1-1.1325-.7522,8.4654,8.4654,0,0,1-.5056-1.519L45.3191,52.08c-.2264-.8153-.3753-.9943-.84-.9943-.5043,0-.6559.1683-.8957.9943L40.3575,63.4261a8.3283,8.3283,0,0,1-.4056,1.1966.8774.8774,0,0,1-.8091.6341,2.0838,2.0838,0,0,1-.3424-.0374,2.0943,2.0943,0,0,0-.43-.05Zm12.3195,1.5735a7.0086,7.0086,0,0,1-.8554-.0975,7.0456,7.0456,0,0,0-2.8988,0,6.3291,6.3291,0,0,1-.8554.0975c-.8074,0-1.2875-.4182-1.2875-1.1124,0-.6157.3589-1.0678.8554-1.0678a7.2347,7.2347,0,0,1,.7481.0713,3.1945,3.1945,0,0,0,.4225.0374c.0593,0,.2446-.0189.2446-.2988a4.5781,4.5781,0,0,0-.1892-.7745l-.4706-1.73a3.1031,3.1031,0,0,0-.2316-.6217,1.051,1.051,0,0,0-.18-.009H43.0338c-.5082,0-.5082,0-.6719.5693l-.5442,1.89a2.0088,2.0088,0,0,0-.0965.5637c0,.3864.1364.4109.3463.4109a2.79,2.79,0,0,0,.4082-.0374,3.69,3.69,0,0,1,.6944-.0713c.4957,0,.8572.4521.8572,1.0678a1.0461,1.0461,0,0,1-1.0455,1.1124,6.3142,6.3142,0,0,1-.8554-.0975,9.1881,9.1881,0,0,0-1.449-.1507,9.1407,9.1407,0,0,0-1.4507.1507,7.0816,7.0816,0,0,1-.8567.0975,1.0285,1.0285,0,0,1-.8572-1.1124.9556.9556,0,0,1,.8572-1.0678,2.6645,2.6645,0,0,1,.542.06,1.3394,1.3394,0,0,0,.2307.03c.068,0,.1333,0,.252-.2834a7.1686,7.1686,0,0,0,.3727-1.1107l.0831-.2765L42.9961,51.916c.2351-.814.4957-1.4353,1.4827-1.4353.9541,0,1.213.6483,1.4317,1.4383l3.0447,10.934a7.4571,7.4571,0,0,0,.4632,1.4074c.1918.3791.3017.4109.5831.4109a2.6721,2.6721,0,0,0,.3736-.0374,4.26,4.26,0,0,1,.4714-.0674H50.85a.9471.9471,0,0,1,.8866,1.0639,1.0462,1.0462,0,0,1-1.0477,1.1124Z"/>
    <path d="M63.76,52.1315c.1537-.6067.2766-1.3438.8788-1.3438.3624,0,1.1.2443,1.77.2443.6745,0,1.4122-.2443,1.7737-.2443a.7525.7525,0,0,1,.8074.8072c0,.4246-.2221.7612-.5494.7612-.2749,0-.5507-.1116-.8243-.1116-.4481,0-.7407.2464-.8425.8342a21.2523,21.2523,0,0,0-.0892,2.783V61.364a21.3144,21.3144,0,0,0,.0892,2.7843c.1017.5826.3944.8291.8425.8291.2736,0,.5494-.1082.8243-.1082.3273,0,.5494.3357.5494.7612a.754.754,0,0,1-.8074.808c-.4645,0-1.4273-.2482-2.3053-.2482-.8762,0-1.8408.2482-2.3057.2482a.7279.7279,0,0,1-.67-.808c0-.4255.2238-.7612.5507-.7612.2727,0,.55.1082.826.1082.4459,0,.7377-.2464.8451-.8291a22.2049,22.2049,0,0,0,.0827-2.7843V52.7854c0-.067.1216-.4293-.0706-.4293a4.0953,4.0953,0,0,0-.0827.4053L62.1442,65.3821c-.1918.808-.3455,1.1253-1.068,1.1253-.7394,0-.8593-.2928-1.05-1.1253L57.1522,52.7613c-.0177-.0687-.0528-.4053-.1723-.4053V61.364a20.9465,20.9465,0,0,0,.0879,2.7843c.1022.5826.3931.8291.8412.8291.2775,0,.5541-.1082.8273-.1082.326,0,.55.3357.55.7612a.74.74,0,0,1-.739.808c-.4676,0-1.43-.2482-2.307-.2482s-1.8425.2482-2.3044.2482a.7394.7394,0,0,1-.7425-.808c0-.4255.2247-.7612.5533-.7612.2736,0,.5468.1082.8243.1082.4481,0,.7416-.2464.8433-.8291a21.32,21.32,0,0,0,.0874-2.7843V55.8616a21.2587,21.2587,0,0,0-.0874-2.783c-.1017-.5878-.3953-.8342-.8433-.8342-.2775,0-.5507.1116-.8243.1116-.3286,0-.5533-.3366-.5533-.7612a.7747.7747,0,0,1,.8788-.8072c.3615,0,1.1.2443,1.7728.2443.67,0,1.4087-.2443,1.7728-.2443.7567,0,.9455,1.2554,1.0992,1.9977l2.4261,11.43Z"/>
    <path d="M56.6752,52.0548H56.98c.3585,0,.4321.4246.4628.6l.0069.0412,2.8754,12.617c.1866.8136.2476.8883.7511.8883.4675,0,.5758-.0708.7715-.8883l2.9057-12.617c.0048-.0279.0121-.0769.0255-.1309.0515-.2975.0913-.51.3567-.51a.3936.3936,0,0,1,.3134.1413.6584.6584,0,0,1,.0684.571l-.0065.0412v8.9663a16.577,16.577,0,0,1-.0875,2.4279,1.1175,1.1175,0,0,1-1.1455,1.0789,2.3535,2.3535,0,0,1-.474-.0618,1.8605,1.8605,0,0,0-.352-.05c-.1385,0-.2455.2069-.2455.4611,0,.3679.2238.504.3649.504a6.1,6.1,0,0,0,.7611-.09,7.6972,7.6972,0,0,1,3.0906,0,6.0615,6.0615,0,0,0,.7593.09.453.453,0,0,0,.5-.504c0-.2542-.1074-.4611-.2429-.4611a1.832,1.832,0,0,0-.352.05,2.3821,2.3821,0,0,1-.4723.0618c-.4346,0-.9879-.1885-1.1451-1.0828a16.8268,16.8268,0,0,1-.0931-2.4408l.0017-.3937-.0017-5.9a16.8917,16.8917,0,0,1,.0931-2.4429,1.1139,1.1139,0,0,1,1.1451-1.0789,2.3037,2.3037,0,0,1,.4723.0627,2.09,2.09,0,0,0,.352.05c.1355,0,.2429-.2061.2429-.46a.4555.4555,0,0,0-.5-.5088,3.4628,3.4628,0,0,0-.5667.0923,4.71,4.71,0,0,1-2.41,0,3.428,3.428,0,0,0-.5676-.0923c-.287,0-.3987.3791-.5381.9471l-.0442.1735L61.4434,64.2793h-.5979L58.3809,52.655c-.12-.586-.3169-1.5688-.7628-1.5688a3.4128,3.4128,0,0,0-.5706.0923,4.7031,4.7031,0,0,1-2.4079,0,3.41,3.41,0,0,0-.5671-.0923c-.57,0-.57.3817-.57.5088,0,.2537.1082.46.2442.46a2.0267,2.0267,0,0,0,.3494-.05,2.29,2.29,0,0,1,.4753-.0627c.4364,0,.9857.1876,1.1451,1.0828a16.9119,16.9119,0,0,1,.0939,2.4339l-.0026.4027.0026,5.9055a16.9716,16.9716,0,0,1-.0939,2.4356c-.1593.89-.7087,1.0789-1.1451,1.0789a2.3791,2.3791,0,0,1-.4753-.0618,1.8029,1.8029,0,0,0-.3494-.05c-.1359,0-.2442.2069-.2442.4611,0,.3692.2208.504.4333.504a6.18,6.18,0,0,0,.7632-.09,7.6738,7.6738,0,0,1,3.0858,0,6.1386,6.1386,0,0,0,.7628.09c.2091,0,.4329-.1348.4329-.504,0-.2542-.1121-.4611-.2446-.4611a1.8557,1.8557,0,0,0-.352.05,2.3957,2.3957,0,0,1-.4749.0618c-.4342,0-.9866-.1885-1.1438-1.0828a16.3752,16.3752,0,0,1-.0931-2.4206l.003-.4139ZM61.0763,66.81c-.987,0-1.1555-.5186-1.3485-1.3606l-2.4416-10.715v7.0476a16.4751,16.4751,0,0,0,.081,2.3146c.0957.53.33.5749.542.5749a1.771,1.771,0,0,0,.3515-.0489,2.5628,2.5628,0,0,1,.4753-.06c.494,0,.8554.4521.8554,1.0678a1.0455,1.0455,0,0,1-1.0438,1.1124,6.3905,6.3905,0,0,1-.8572-.0975,7.0475,7.0475,0,0,0-2.8992,0,7.1031,7.1031,0,0,1-.8554.0975,1.047,1.047,0,0,1-1.049-1.1124c0-.6157.3611-1.0678.86-1.0678a2.5207,2.5207,0,0,1,.4727.06,1.7751,1.7751,0,0,0,.352.0489c.2117,0,.4476-.0451.5429-.5749a16.79,16.79,0,0,0,.0818-2.3274v-6.31a16.7268,16.7268,0,0,0-.0818-2.3274c-.0922-.5135-.3173-.5826-.5429-.5826a1.7888,1.7888,0,0,0-.35.0468,2.1575,2.1575,0,0,1-.4745.0653.9586.9586,0,0,1-.86-1.0656,1.0784,1.0784,0,0,1,1.1858-1.1141,3.9119,3.9119,0,0,1,.69.1,4.0346,4.0346,0,0,0,2.1633,0,3.9968,3.9968,0,0,1,.6927-.1c.9455,0,1.1966,1.2365,1.3624,2.0548l.0377.1846L61.1447,62.756l2.3594-10.8635c.1468-.5946.3472-1.4117,1.1347-1.4117a3.9185,3.9185,0,0,1,.6909.1,5.5768,5.5768,0,0,0,1.0788.1477,5.6465,5.6465,0,0,0,1.0879-.1477,3.8464,3.8464,0,0,1,.6862-.1,1.0564,1.0564,0,0,1,1.1161,1.1141.9574.9574,0,0,1-.8585,1.0656,2.1356,2.1356,0,0,1-.474-.0653,1.772,1.772,0,0,0-.35-.0468c-.2294,0-.4533.0691-.5416.5787a16.8339,16.8339,0,0,0-.087,2.3313l.0022.4027-.0022,5.9017a16.866,16.866,0,0,0,.087,2.3335c.0883.5075.3121.5749.5416.5749a1.785,1.785,0,0,0,.35-.0489,2.5533,2.5533,0,0,1,.474-.06c.497,0,.8585.4521.8585,1.0678a1.056,1.056,0,0,1-1.1161,1.1124,6.3107,6.3107,0,0,1-.8537-.0975,7.06,7.06,0,0,0-2.9018,0,6.3924,6.3924,0,0,1-.8554.0975,1.0241,1.0241,0,0,1-.9775-1.1124.9553.9553,0,0,1,.858-1.0678,2.4975,2.4975,0,0,1,.4714.06,1.8527,1.8527,0,0,0,.3546.0489c.2277,0,.452-.0674.5433-.5749a16.749,16.749,0,0,0,.08-2.3184l-.0026-.4139V54.7862L62.44,65.4492c-.1853.8007-.3948,1.3606-1.3641,1.3606Z"/>
    <path d="M73.5294,55.8614a20.8185,20.8185,0,0,0-.0866-2.783c-.0983-.5878-.3953-.8342-.8394-.8342-.2766,0-.5515.1121-.8321.1121-.3256,0-.5455-.3366-.5455-.7616a.7377.7377,0,0,1,.7394-.8067c.465,0,1.4269.2443,2.3035.2443.8806,0,1.8481-.2443,2.3074-.2443a.7374.7374,0,0,1,.7394.8067c0,.425-.22.7616-.5476.7616-.2784,0-.5533-.1121-.826-.1121-.4481,0-.7416.2464-.8451.8342a20.4567,20.4567,0,0,0-.0883,2.783v5.5024a20.5233,20.5233,0,0,0,.0883,2.7847c.1035.5822.397.8286.8451.8286.2727,0,.5476-.1082.826-.1082.3273,0,.5476.3362.5476.7616a.7393.7393,0,0,1-.7394.808c-.4593,0-1.4269-.2482-2.3074-.2482-.8767,0-1.8386.2482-2.3035.2482a.74.74,0,0,1-.7394-.808c0-.4255.22-.7616.5455-.7616.2805,0,.5554.1082.8321.1082.4442,0,.7411-.2464.8394-.8286a20.8862,20.8862,0,0,0,.0866-2.7847Z"/>
    <path d="M74.2688,65.8879a10.2308,10.2308,0,0,1,1.549.1567,5.9974,5.9974,0,0,0,.7585.09c.2087,0,.4346-.1344.4346-.504,0-.2593-.1091-.4611-.2429-.4611a1.8469,1.8469,0,0,0-.3559.05,2.329,2.329,0,0,1-.47.0618,1.1123,1.1123,0,0,1-1.1459-1.0828,16.2091,16.2091,0,0,1-.0944-2.43v-6.31a16.3219,16.3219,0,0,1,.0944-2.4378,1.11,1.11,0,0,1,1.1459-1.0785,2.45,2.45,0,0,1,.4762.0623,1.8932,1.8932,0,0,0,.35.05c.1338,0,.2429-.2057.2429-.46,0-.374-.226-.5088-.4346-.5088a6.015,6.015,0,0,0-.7585.0923,7.6973,7.6973,0,0,1-3.0906,0,5.9649,5.9649,0,0,0-.7619-.0923c-.2108,0-.4325.1348-.4325.5088,0,.2542.1126.46.2385.46a2.0427,2.0427,0,0,0,.3559-.05,2.324,2.324,0,0,1,.4762-.0623c.4308,0,.9862.1872,1.1425,1.0824a16.339,16.339,0,0,1,.0939,2.4228l-.0078.4139.0078,5.9133a16.4111,16.4111,0,0,1-.0939,2.4279,1.1142,1.1142,0,0,1-1.1425,1.0789,2.3939,2.3939,0,0,1-.4762-.0618,1.8562,1.8562,0,0,0-.3559-.05c-.126,0-.2385.2074-.2385.4611,0,.37.2217.504.4325.504a5.9508,5.9508,0,0,0,.7619-.09,10.2111,10.2111,0,0,1,1.5416-.1567m2.3074.8548a6.4534,6.4534,0,0,1-.8563-.097,7.0238,7.0238,0,0,0-2.8984,0,7.1122,7.1122,0,0,1-.8563.097A1.0462,1.0462,0,0,1,70.9189,65.63a.9573.9573,0,0,1,.8524-1.0678,2.55,2.55,0,0,1,.4784.06,1.8257,1.8257,0,0,0,.3537.0485c.2277,0,.4494-.0674.5437-.5749a17.0406,17.0406,0,0,0,.081-2.3146l-.0056-.4177.0056-5.9184a16.98,16.98,0,0,0-.081-2.3146c-.0944-.5131-.316-.5822-.5437-.5822a1.8523,1.8523,0,0,0-.3537.0464,2.1823,2.1823,0,0,1-.4784.0653.9583.9583,0,0,1-.8524-1.0656,1.0452,1.0452,0,0,1,1.0464-1.1141,6.3856,6.3856,0,0,1,.8563.0992,7.1228,7.1228,0,0,0,2.8984,0,6.5118,6.5118,0,0,1,.8563-.0992,1.0454,1.0454,0,0,1,1.0464,1.1141c0,.6178-.3615,1.0656-.8546,1.0656a2.155,2.155,0,0,1-.4758-.0653,1.905,1.905,0,0,0-.35-.0464c-.2333,0-.4572.0691-.5424.5783a16.8942,16.8942,0,0,0-.0862,2.3253l.0056.4087-.0056,5.9133A16.8678,16.8678,0,0,0,75.4,64.0963c.0853.5075.3091.5749.5424.5749a1.838,1.838,0,0,0,.35-.0485,2.5177,2.5177,0,0,1,.4758-.06c.4931,0,.8546.4521.8546,1.0678a1.0465,1.0465,0,0,1-1.0464,1.1124"/>
    <path d="M83.0671,62.5546c0,2.5382.0208,2.4,2.0364,2.4h1.129a3.34,3.34,0,0,0,1.6732-.2911c.587-.3808.57-1.1236.57-1.8629l-.0507-1.911c0-.5152.1727-.9858.6134-.9858.5,0,.7394.2486.7394.9,0,.7612-.1338,1.5005-.1338,2.2639,0,.7226.1338,1.3962.1338,2.0887-.0792.9686-.44,1.282-.9615,1.282q-2.7839-.103-5.5764-.2482c-.9935.0936-1.9611.1344-3.1936.2482a.729.729,0,0,1-.7736-.7612c0-.4276.2372-.808.5628-.808.2727,0,.5515.1546.826.1546.81,0,.9338-.8527.9338-3.66V55.8613a21.707,21.707,0,0,0-.0887-2.7825c-.1056-.5878-.3965-.8346-.8451-.8346-.2745,0-.5533.1121-.826.1121-.3256,0-.5494-.3366-.5494-.7612a.7294.7294,0,0,1,.6663-.8072c.4667,0,1.4317.2443,2.3092.2443.8827,0,1.8425-.2443,2.307-.2443a.7549.7549,0,0,1,.81.8072c0,.4246-.2281.7612-.5533.7612-.2732,0-.5481-.1121-.8264-.1121-.4481,0-.7338.2469-.8394.8346a20.79,20.79,0,0,0-.0922,2.7825Z"/>
    <path d="M79.8359,65.1693c-.1152,0-.26.2237-.26.5079a.432.432,0,0,0,.4706.4572c.6234-.06,1.2044-.0987,1.7464-.1361.4875-.0356.9546-.0657,1.4269-.1065l.0169-.0077.0225.0039c1.8126.09,3.685.179,5.5673.2464.1974,0,.5624-.0094.6528-1.0025,0-.3023-.0377-.6273-.0719-.9725-.0338-.3508-.0693-.711-.0693-1.0918,0-.3937.0355-.7818.0693-1.1626.0342-.3787.0719-.7355.0719-1.1013,0-.5972-.2126-.5972-.44-.5972-.2974,0-.3069.5676-.3069.6831l.0528,1.9711c0,.7462,0,1.5976-.71,2.0565a3.5639,3.5639,0,0,1-1.8425.34l-1.6563.006c-1.7572,0-1.8139-.39-1.8139-2.7083V55.4658a16.1875,16.1875,0,0,1,.0939-2.4451,1.1145,1.1145,0,0,1,1.1425-1.0789,2.3769,2.3769,0,0,1,.4762.0627,2.1169,2.1169,0,0,0,.35.05c.1338,0,.2468-.2057.2468-.46a.4585.4585,0,0,0-.5026-.5088,6.0826,6.0826,0,0,0-.7619.0923,10.2884,10.2884,0,0,1-1.5451.1567,10.5528,10.5528,0,0,1-1.5494-.1567,5.9045,5.9045,0,0,0-.76-.0923c-.1338,0-.3619.1391-.3619.5088,0,.2542.1113.46.245.46a2.0239,2.0239,0,0,0,.35-.05,2.3683,2.3683,0,0,1,.4758-.0627c.4385,0,.9862.1876,1.1477,1.0828a17.6933,17.6933,0,0,1,.0892,2.4339V61.364c0,2.6761-.0545,3.96-1.2368,3.96a1.7762,1.7762,0,0,1-.4927-.0859,1.4327,1.4327,0,0,0-.3333-.0691m8.9808,1.5735h-.01c-1.8745-.067-3.7508-.1606-5.5534-.2464-.4723.0408-.93.0747-1.4156.1082-.5459.0378-1.1178.0786-1.7672.1344a1.0449,1.0449,0,0,1-1.11-1.0618,1.0086,1.0086,0,0,1,.8749-1.1146,1.7387,1.7387,0,0,1,.4948.09,1.4528,1.4528,0,0,0,.3312.067c.4953,0,.6212-.6882.6212-3.3553V55.4585a16.3037,16.3037,0,0,0-.0792-2.3274c-.0939-.5131-.3143-.5826-.542-.5826a1.7515,1.7515,0,0,0-.35.0468,2.1625,2.1625,0,0,1-.4762.0653c-.4935,0-.8567-.4478-.8567-1.0656a1.0364,1.0364,0,0,1,.9736-1.1141,6.4245,6.4245,0,0,1,.86.0987,7.1112,7.1112,0,0,0,2.9,0,6.4841,6.4841,0,0,1,.8563-.0987,1.0524,1.0524,0,0,1,1.1122,1.1141.9573.9573,0,0,1-.8563,1.0656,2.1551,2.1551,0,0,1-.4758-.0653,1.7077,1.7077,0,0,0-.35-.0468c-.2277,0-.4481.07-.542.5787a16.6961,16.6961,0,0,0-.0788,2.3369v7.0905c0,2.1016,0,2.1016,1.1983,2.1016l1.6563-.0039a3.0848,3.0848,0,0,0,1.5018-.2426c.4329-.28.4329-.87.4329-1.5491v-.06l-.0545-1.9033c0-.8024.3554-1.3.926-1.3.7,0,1.05.4074,1.05,1.206,0,.392-.0359.7818-.0719,1.1571-.0338.3808-.068.7432-.068,1.1068,0,.3452.0342.6964.068,1.0326a10.0672,10.0672,0,0,1,.0719,1.0562c-.0944,1.0639-.5217,1.5864-1.2723,1.5864"/>
    <path d="M95.59,62.5546c0,2.5382.0186,2.4,2.0321,2.4h1.1351a3.33,3.33,0,0,0,1.6715-.2911c.5814-.3808.57-1.1236.57-1.8629l-.0546-1.911c0-.5152.1714-.9858.62-.9858.5,0,.7377.2486.7377.9,0,.7612-.139,1.5005-.139,2.2639,0,.7226.139,1.3962.139,2.0887-.0866.9686-.4459,1.282-.96,1.282q-2.7923-.103-5.5786-.2482c-.9987.0936-1.9589.1344-3.201.2482a.7289.7289,0,0,1-.7732-.7612c0-.4276.2385-.808.57-.808.2749,0,.5481.1546.8282.1546.8018,0,.9243-.8527.9243-3.66V55.8613a21.1038,21.1038,0,0,0-.0866-2.7825c-.0978-.5878-.397-.8346-.8377-.8346-.28,0-.5533.1121-.8282.1121-.3312,0-.5511-.3366-.5511-.7612a.7264.7264,0,0,1,.668-.8072c.465,0,1.4321.2443,2.3109.2443.8732,0,1.8334-.2443,2.3057-.2443a.7508.7508,0,0,1,.8013.8072c0,.4246-.22.7612-.5455.7612-.2745,0-.5554-.1121-.8264-.1121-.4476,0-.7394.2469-.8429.8346a20.8042,20.8042,0,0,0-.0883,2.7825Z"/>
    <path d="M92.3583,65.1693c-.1221,0-.2671.2237-.2671.5079a.4334.4334,0,0,0,.4706.4572c.6247-.06,1.2044-.0987,1.7464-.1361.4966-.0356.9541-.0657,1.4269-.1065l.0225-.0077.0242.0039c1.7143.0837,3.6755.179,5.56.2464.203,0,.5719-.0094.6567-1.0025-.0039-.3023-.032-.6273-.068-.9725a10.5646,10.5646,0,0,1-.07-1.0918c0-.3937.0338-.7818.07-1.1626.0359-.3787.0641-.7355.0641-1.1013,0-.5972-.2091-.5972-.4308-.5972-.2974,0-.3165.5676-.3165.6831l.0528,1.9728c0,.7483,0,1.5959-.7061,2.0548a3.5412,3.5412,0,0,1-1.8364.34l-1.662.006c-1.7615,0-1.8083-.39-1.8083-2.7083l-.0056-7.1077a17.0493,17.0493,0,0,1,.0939-2.4262c.1619-.8913.713-1.0789,1.1459-1.0789a2.2484,2.2484,0,0,1,.4706.0627,2.1252,2.1252,0,0,0,.3559.05c.1355,0,.2429-.2057.2429-.46a.4552.4552,0,0,0-.4987-.5088,6.2342,6.2342,0,0,0-.77.0923,10.1746,10.1746,0,0,1-1.5356.1567,10.3247,10.3247,0,0,1-1.549-.1567,5.9207,5.9207,0,0,0-.7619-.0923c-.1411,0-.3649.1391-.3649.5088,0,.2542.1074.46.2481.46a2.0175,2.0175,0,0,0,.3485-.05,2.358,2.358,0,0,1,.48-.0627c.429,0,.9806.1876,1.1407,1.0828a16.353,16.353,0,0,1,.09,2.4339V61.364c0,2.6761-.0507,3.96-1.2308,3.96a1.818,1.818,0,0,1-.5022-.0859,1.3718,1.3718,0,0,0-.326-.0691m8.983,1.5735h-.01c-1.89-.067-3.84-.1644-5.5612-.2464-.4645.0408-.9282.0747-1.4152.1082-.5424.0378-1.1182.0786-1.7654.1344a1.0378,1.0378,0,0,1-1.11-1.0618,1.0059,1.0059,0,0,1,.8784-1.1146,1.7793,1.7793,0,0,1,.4953.09,1.4432,1.4432,0,0,0,.3329.067c.4953,0,.6212-.6882.6212-3.3553V55.4585a17.2466,17.2466,0,0,0-.0792-2.3274c-.0939-.5131-.316-.5826-.542-.5826a1.8413,1.8413,0,0,0-.3576.0468,2.0939,2.0939,0,0,1-.4706.0653.9587.9587,0,0,1-.8615-1.0656,1.0412,1.0412,0,0,1,.9784-1.1141,6.4839,6.4839,0,0,1,.8563.0987,9.9807,9.9807,0,0,0,1.4546.1494,9.8318,9.8318,0,0,0,1.4433-.1494,6.5106,6.5106,0,0,1,.8624-.0987,1.0545,1.0545,0,0,1,1.1122,1.1141.9562.9562,0,0,1-.8563,1.0656,2.1626,2.1626,0,0,1-.4762-.0653,1.8275,1.8275,0,0,0-.35-.0468c-.2273,0-.4554.07-.54.5787a15.8421,15.8421,0,0,0-.0848,2.3184v7.109c0,2.1016,0,2.1016,1.1987,2.1016l1.662-.0039a3.1728,3.1728,0,0,0,1.5018-.2426c.429-.28.429-.87.429-1.5473v-.0618l-.0507-1.9033c0-.8024.3537-1.3.926-1.3.6922,0,1.0481.4074,1.0481,1.206a10.9812,10.9812,0,0,1-.0753,1.1571c-.0281.3808-.0658.7432-.0658,1.1068,0,.3452.0377.6964.07,1.0326a10.0664,10.0664,0,0,1,.0714,1.0562c-.0939,1.0639-.523,1.5864-1.27,1.5864"/>
    <path d="M108.0954,61.9945l.0511,1.57c0,1.48.5308,1.3215,1.4451,1.3215h2.0308c1.24,0,2.0663-.0167,2.0663-1.95l-.0338-2.0213c0-.5392.1355-1.0562.6173-1.0562.5,0,.67.45.67,1.0321v4.5166c0,.6758-.3628,1.0562-.8637,1.0321-1.8555-.0687-3.7114-.155-5.5686-.2482-.9979.0932-1.9628.1344-3.2031.2482-.64,0-.9935-.27-.9935-.808,0-.4255.2195-.7616.5455-.7616.2749,0,.5533.1082.8264.1082.4476,0,.7394-.2464.8429-.8286a21.87,21.87,0,0,0,.0883-2.7847V55.8614a21.7967,21.7967,0,0,0-.0883-2.783c-.1035-.5878-.3952-.8342-.8429-.8342-.2732,0-.5515.1121-.8264.1121-.326,0-.5455-.3366-.5455-.7616a.7326.7326,0,0,1,.7355-.8067c1.242.1078,2.2022.1546,3.1958.2443,1.8667-.09,3.7222-.1765,5.5777-.2443.59,0,.9169.2675.9169,1.0733,0,.8312-.1411,1.6414-.1411,2.47,0,.7655.1411,1.4859.1411,2.227,0,.4946-.2749.8509-.6606.8509-.723,0-.6325-1.01-.6325-1.6633,0-.8471.1039-2.1759-.3784-2.8517a1.2276,1.2276,0,0,0-.9143-.4031l-1.8239-.067a3.8084,3.8084,0,0,0-1.9269.3138c-.3784.3409-.3069,1.08-.3069,1.5933v1.82c0,.295-.0338.808.1489.9909.2087.1979.7658.1567,1.0031.1567.5528,0,1.4793.0206,1.4793-1.0115,0-.47-.1035-.9669-.1035-1.437,0-.5191.1918-.9445.6208-.9445.4671,0,.6528.4723.6528,1.03-.0714,1.0824-.1407,2.2059-.2087,3.3261.068,1.0751.1372,2.1536.2087,3.2119-.0338.4946-.2745.7857-.6342.7857-.4853,0-.6394-.3808-.6394-.963,0-.4925.1035-.9892.1035-1.4855,0-1.0527-.7927-.9892-1.3741-.9892-.2632,0-.8429-.0635-1.0892.1829-.2394.246-.168.9669-.168,1.3249Z"/>
    <path d="M108.4962,65.8841l.0229.0039c1.7295.0837,3.6811.179,5.5742.2464l.032.304v-.304c.4723,0,.5134-.5581.5134-.7277V60.89c0-.7277-.2723-.7277-.3667-.7277-.2727,0-.3143.4706-.3143.7522l.0338,2.0136c0,2.266-1.1459,2.266-2.3689,2.266l-2.4733.0034c-.826,0-1.31-.2688-1.31-1.6328l-.0528-1.5624V60.1336a1.9339,1.9339,0,0,1,.2563-1.3382,1.3209,1.3209,0,0,1,.9446-.2834c.0788,0,.1619.0039.2316.0056.0507,0,.0939.0056.1338.0056l.2009-.0056c.4446,0,1.4741,0,1.4741,1.2936a6.88,6.88,0,0,1-.0511.7724c-.0242.2482-.0472.4813-.0472.7127,0,.6629.2074.6629.3334.6629.25,0,.3121-.2928.3255-.4852-.0658-1.051-.1355-2.1184-.203-3.1934.0675-1.1609.1372-2.2845.2087-3.36,0-.1494-.0281-.7093-.35-.7093-.2918,0-.3147.489-.3147.6384a6.8558,6.8558,0,0,0,.0472.6848,6.69,6.69,0,0,1,.0511.7518c0,1.3142-1.2442,1.3142-1.7109,1.3142l-.3541.0039a1.3385,1.3385,0,0,1-.9238-.2482,1.47,1.47,0,0,1-.2524-1.0879V54.1293a2.0907,2.0907,0,0,1,.4126-1.6165A3.3038,3.3038,0,0,1,110.15,52.12h.1788l1.8356.0665a1.5189,1.5189,0,0,1,1.1533.5337,4.6664,4.6664,0,0,1,.4351,2.6391v.3864l-.0039.1979c0,.3675-.0061.93.1671,1.109a.213.213,0,0,0,.1623.0541c.2048,0,.35-.2336.35-.5491,0-.3563-.0281-.7033-.0619-1.0656-.0359-.3731-.0753-.7578-.0753-1.1609,0-.4255.0394-.8475.0753-1.258.026-.4.0619-.8084.0619-1.212,0-.7179-.26-.775-.6061-.775-1.784.0661-3.6153.1559-5.3824.24l-.2.009h-.0186c-.4572-.0408-.9109-.0756-1.3853-.1073-.5567-.0395-1.1442-.08-1.8161-.1417-.1805,0-.4065.1348-.4065.5088,0,.2542.1091.46.245.46a1.9907,1.9907,0,0,0,.35-.05,2.356,2.356,0,0,1,.4762-.0627c.4368,0,.9879.1876,1.1477,1.0828a16.4408,16.4408,0,0,1,.09,2.4279l-.0039.4087.0039,5.9077a16.5291,16.5291,0,0,1-.09,2.4335,1.1168,1.1168,0,0,1-1.1477,1.0789,2.2822,2.2822,0,0,1-.4723-.0618,1.888,1.888,0,0,0-.3537-.05c-.1359,0-.245.2018-.245.4611,0,.1606,0,.504.6927.504.623-.06,1.2065-.0987,1.7542-.1361.48-.0356.9485-.0657,1.4169-.1065Zm5.6292.8587h-.0563c-1.8875-.067-3.8322-.1644-5.5539-.2464-.4723.0408-.9316.0747-1.4156.1082-.54.0378-1.1178.0786-1.765.1344h-.0052c-.84,0-1.3273-.4143-1.3273-1.1086,0-.6157.3615-1.0678.8567-1.0678a2.4312,2.4312,0,0,1,.4706.06,1.86,1.86,0,0,0,.3554.0485c.2277,0,.4554-.0674.54-.5749a16.2122,16.2122,0,0,0,.0848-2.3219V55.4469a16.0921,16.0921,0,0,0-.0848-2.3158c-.0844-.5131-.3121-.5826-.54-.5826a1.7761,1.7761,0,0,0-.35.0468,2.1731,2.1731,0,0,1-.4758.0653.9587.9587,0,0,1-.8567-1.0656,1.0474,1.0474,0,0,1,1.0464-1.1141c.6948.0614,1.2758.1035,1.8295.1408.4706.0313.9186.067,1.3741.1073l.158-.0082c1.7689-.0846,3.6036-.1765,5.4028-.24.8208,0,1.2329.4637,1.2329,1.38,0,.4272-.0416.8535-.0753,1.264-.0377.3958-.0658.8063-.0658,1.206a9.278,9.278,0,0,0,.0714,1.103c.0281.3641.07.741.07,1.1236a1.042,1.042,0,0,1-.9671,1.1575.8274.8274,0,0,1-.6-.2391,2.2061,2.2061,0,0,1-.3407-1.54l.0052-.19V55.35a4.4777,4.4777,0,0,0-.3255-2.2772.9977.9977,0,0,0-.6883-.28l-1.9784-.067a2.9527,2.9527,0,0,0-1.5485.2426c-.2225.1958-.2087.7462-.2035,1.15V56.276a1.8782,1.8782,0,0,0,.0641.6474c.0061.0073.0922.0769.5.0769l.2844-.0077h.07c.7472,0,1.1009-.1026,1.1009-.7058a6.7779,6.7779,0,0,0-.0472-.6865c-.0225-.246-.0507-.5-.0507-.75,0-.7621.3593-1.2455.9243-1.2455.5966,0,.9593.51.9593,1.3309-.0675,1.1013-.1372,2.2253-.2087,3.345.0714,1.0416.1411,2.1205.2087,3.175v.0408c-.0468.6474-.4173,1.0695-.9407,1.0695-.4308,0-.9429-.22-.9429-1.27,0-.261.0281-.5221.0507-.7724.0247-.2464.0472-.48.0472-.7127,0-.6182-.2745-.6814-.8641-.6814h-.2009c-.04,0-.1017-.0056-.1528-.0056-.0693-.0039-.139-.0039-.2126-.0039-.3689,0-.4723.067-.5.0953-.113.1172-.0939.6882-.0887.9012v1.8775l.0511,1.5585c0,1.04.203,1.04.7,1.04l.1957-.0073c.0775,0,.158-.0039.2463-.0039h2.0312c1.2061,0,1.7572,0,1.7572-1.6461l-.0338-2.0157c0-1.2322.6455-1.3662.926-1.3662.2935,0,.9784.1305.9784,1.3361v4.5171a1.18,1.18,0,0,1-1.1252,1.3361Z"/>
    </g>
</svg>