<?xml version="1.0" encoding="utf-8"?>
<!-- Generator: Adobe Illustrator 24.2.3, SVG Export Plug-In . SVG Version: 6.00 Build 0)  -->
<svg version="1.1" id="Layer_1" xmlns="http://www.w3.org/2000/svg" xmlns:xlink="http://www.w3.org/1999/xlink" x="0px" y="0px"
	 viewBox="0 0 24 24" style="enable-background:new 0 0 24 24;" xml:space="preserve">
<style type="text/css">
	.st0{fill:#FFFFFF;}
</style>
<g>
	<path class="st0" d="M0,12c0-3.2,0-6.4,0-9.5C0,0.9,0.9,0,2.4,0c6.4,0,12.7,0,19.1,0C23.1,0,24,0.9,24,2.4c0,6.4,0,12.8,0,19.2
		c0,1.5-0.9,2.4-2.4,2.4c-1.6,0-3.2,0-4.8,0c-0.3,0-0.5-0.1-0.5-0.4c0-3,0-6,0-9c0-0.3,0.1-0.4,0.4-0.4c0.7,0,1.5,0,2.2,0
		c0.3,0,0.4-0.1,0.4-0.3c0.1-0.8,0.2-1.7,0.4-2.5c0-0.3,0-0.4-0.3-0.4c-0.9,0-1.8,0-2.6,0c-0.3,0-0.4-0.1-0.4-0.4
		c0-0.6,0-1.2,0.1-1.7c0.1-0.7,0.5-1,1.2-1.1c0.6-0.1,1.2,0,1.8,0c0.3,0,0.4-0.1,0.4-0.4c0-0.8,0-1.6,0-2.3c0-0.2,0-0.3-0.3-0.4
		c-1.2-0.1-2.4-0.2-3.6,0.1c-1.6,0.4-2.4,1.5-2.7,3.1c-0.2,0.9-0.2,1.9-0.1,2.8c0,0.3-0.1,0.4-0.4,0.4c-0.8,0-1.7,0-2.5,0
		C10,11,9.9,11,9.9,11.3c0,0.8,0,1.7,0,2.5c0,0.3,0.1,0.3,0.3,0.3c0.8,0,1.7,0,2.5,0c0.3,0,0.4,0.1,0.4,0.4c0,3,0,6,0,9.1
		c0,0.3-0.1,0.4-0.4,0.4c-3.5,0-7.1,0-10.6,0C1,24,0,23,0,21.8C0,18.5,0,15.2,0,12z"/>
</g>
</svg>
