<?xml version="1.0" encoding="utf-8"?>
<!-- Generator: Adobe Illustrator 24.2.3, SVG Export Plug-In . SVG Version: 6.00 Build 0)  -->
<svg version="1.1" id="Layer_1" xmlns="http://www.w3.org/2000/svg" xmlns:xlink="http://www.w3.org/1999/xlink" x="0px" y="0px"
	 viewBox="0 0 24 24" style="enable-background:new 0 0 24 24;" xml:space="preserve">
<style type="text/css">
	.st0{fill:#FFFFFF;}
</style>
<g>
	<path class="st0" d="M21.6,0H2.4C1.1,0,0,1.1,0,2.4v19.1C0,22.9,1.1,24,2.4,24h19.1c1.3,0,2.4-1.1,2.4-2.4V2.4
		C24,1.1,22.9,0,21.6,0z M7.3,20c0,0.4,0,0.4-0.4,0.4c-0.9,0-1.9,0-2.8,0c-0.2,0-0.3-0.1-0.3-0.3c0-3.4,0-6.9,0-10.3
		c0-0.3,0-0.4,0.4-0.4h2.8c0.3,0,0.4,0,0.4,0.4v5.2h0V20z M5.5,7.8C4.4,7.8,3.5,7.1,3.5,6s0.8-1.9,1.9-1.9c1.1,0,1.9,0.8,1.9,1.9
		C7.4,7.1,6.6,7.8,5.5,7.8z M19.6,20c0,0.4,0,0.4-0.4,0.4h-2.8c-0.4,0-0.4,0-0.4-0.4v-5.5c0-0.4,0-0.8-0.1-1.2
		c-0.1-0.7-0.4-1.2-1.1-1.4c-0.7-0.2-1.3,0-1.8,0.6c-0.3,0.4-0.5,0.9-0.5,1.4c0,2,0,4,0,6c0,0.4,0,0.4-0.4,0.4H9.4
		c-0.3,0-0.3,0-0.3-0.3c0-3.5,0-6.9,0-10.4c0-0.3,0-0.4,0.3-0.4c1,0,1.9,0,2.9,0c0.2,0,0.3,0.1,0.3,0.3c0,0.4,0,0.8,0,1.1
		c0.2-0.1,0.3-0.2,0.4-0.3c0.6-0.9,1.5-1.3,2.5-1.4c0.5,0,1,0,1.5,0.2c1.5,0.5,2.3,1.6,2.6,3.1c0.1,0.5,0.2,1,0.2,1.6V20z"/>
</g>
</svg>
