<?xml version="1.0" encoding="utf-8"?>
<!-- Generator: Adobe Illustrator 24.2.3, SVG Export Plug-In . SVG Version: 6.00 Build 0)  -->
<svg version="1.1" id="Layer_1" xmlns="http://www.w3.org/2000/svg" xmlns:xlink="http://www.w3.org/1999/xlink" x="0px" y="0px"
	 viewBox="0 0 900 1068" style="enable-background:new 0 0 900 1068;" xml:space="preserve">
<g>
	<path d="M900.5,878.6c-4,10.5-11.4,15.1-22.7,14.9c-27.6-0.4-55.3,0.2-82.9-0.5c-50-1.2-100-2.9-150-4.8
		c-22.4-0.8-44.8-1.5-67.2-2.2c-48-1.5-96.1-0.9-144.1-1.4c-41.8-0.5-83.6-1.8-125.2-5.9c-34.2-3.4-68.3-8.3-102.4-12.5
		c-28.6-3.5-57.3-6-86-7.9c-32.2-2.1-64.4-2.5-96.6-2.6c-2.6,0-5.2-0.4-7.7-0.9c-6.8-1.3-12.6-4.9-13.8-11.7
		c-1.4-7.9-2.7-16.8,5.8-22.3c3.9-2.5,4.8-3.8,0.2-6.7c-8.8-5.6-7.3-14.8-5.9-22.9c1.2-6.8,7.1-10.3,13.9-11.6
		c9.3-1.8,18.8-1.2,28.2-0.6c19.8,1.2,39.6,0.4,59.4,1.6c38.9,2.5,77.8,5.4,116.4,10.7c36.8,5,73.7,9.9,110.8,12.6
		c29.5,2.1,59.1,3.4,88.7,3.9c10.4,0.2,20.8-0.3,31.2-0.2c38.8,0.3,77.7,0.4,116.5,1.2c36.2,0.8,72.4,1.9,108.6,3.6
		c37.6,1.8,75.2,2.6,112.8,3.5c30.4,0.8,60.8,1,91.3,0.8c9.3-0.1,16.3,3.2,21,11.3C900.5,844.9,900.5,861.7,900.5,878.6z"/>
	<path d="M900.5,278.6c-4.3,10.7-12.7,14.7-23.8,14.5c-41.6-0.5-83.3-0.6-124.9-1.4c-32.8-0.7-65.6-1.8-98.4-3.5
		c-43.6-2.2-87.2-2.6-130.8-3.8c-36.4-1-72.9-0.3-109.3-0.7c-46.8-0.6-93.5-3.7-140-9.3c-44.6-5.4-89.2-11.9-134.1-15
		c-26.8-1.8-53.5-3.5-80.3-3.7c-13-0.1-26-0.6-39-0.8c-8.9-0.2-16-4.6-18.1-11.2c-3.2-10.1-0.1-19.4,8.1-24.7c0.8-0.5,1.6-1.1,2.9-2
		c-8.5-4.2-12.2-10.3-11.6-19.5c0.7-11.1,6.8-18.6,18.1-18.8c15-0.3,30-0.1,45,0.3c14.4,0.4,28.8,1.3,43.2,1.8
		c31.8,1.1,63.4,4.2,95,8.1c46.6,5.7,93.1,12.6,140,15.9c46,3.2,92,2.7,138,2.9c33.8,0.1,67.7,0.4,101.5,1.3
		c45.8,1.2,91.6,3,137.4,4.7c52.6,2,105.3,2.5,157.9,2.3c9.6,0,17.8,2.3,23.2,10.9C900.5,244.1,900.5,261.3,900.5,278.6z"/>
	<path d="M900.5,540.7c-4,10.4-11.3,15.1-22.7,15c-30.2-0.4-60.5,0.2-90.7-0.5c-50.2-1.2-100.4-3-150.6-4.9
		c-23.4-0.9-46.8-1.5-70.2-2.2c-46.6-1.5-93.3-0.7-139.9-1.2c-56.4-0.6-112.7-3.9-168.7-11.6c-43-5.9-86-11.5-129.3-14.4
		c-34.5-2.3-69.2-3.4-103.8-2.9c-3.6,0.1-7.2-0.1-10.7-1.2c-10.3-3.3-14.1-10.5-12.6-23.9c0.8-7.1,8.7-13.6,17.5-13.7
		c30-0.3,60,0.5,90,2c34.2,1.7,68.2,5.2,102.2,9c22.9,2.5,45.6,6.1,68.4,8.7c19.3,2.2,38.6,4,57.9,5.5c71.8,5.4,143.7,2.7,215.5,4.1
		c49,0.9,98,3,147,4.8c22.4,0.8,44.8,1.5,67.2,2.2c37.2,1.1,74.5,1.2,111.7,1c9.5,0,16.8,3,21.8,11.1
		C900.5,531.9,900.5,536.3,900.5,540.7z"/>
</g>
</svg>
