<svg xmlns="http://www.w3.org/2000/svg" height="250" width="250" viewBox="0 0 250 250">
    <path d="M2.5,2.5c13.6,0,13.76.41,27.36.41s13.6-.21,27.19-.21,13.6-.54,27.19-.54,13.6.43,27.19.43,13.6.53,27.19.53,13.6-.77,27.2-.77,13.6.17,27.19.17,13.6,1,27.19,1c12.7,0,13.61-.88,24.76-1h2.52"
          transform="translate(-1.98 -1.64)" fill="none" stroke="#010202" stroke-linecap="round" stroke-linejoin="round"
          stroke-width="1.1"/>
    <path d="M2.5,247.5H5c11.22,0,12.18.09,24.9.09,13.6,0,13.6-.21,27.19-.21s13.6-.54,27.19-.54,13.6.43,27.19.43,13.6.53,27.19.53,13.6-.77,27.2-.77,13.6.17,27.19.17,13.6,1,27.19,1c12.69,0,13.61-.58,24.74-.65h2.54"
          transform="translate(-1.98 -1.64)" fill="none" stroke="#010202" stroke-linecap="round" stroke-linejoin="round"
          stroke-width="1.1"/>
    <line x1="0.52" y1="245.86" x2="0.52" y2="0.86" fill="none" stroke="#010202" stroke-linecap="round"
          stroke-linejoin="round" stroke-width="0.6"/>
    <line x1="245.52" y1="0.86" x2="245.52" y2="245.86" fill="none" stroke="#010202" stroke-linecap="round"
          stroke-linejoin="round" stroke-width="0.6"/>
</svg>