<?xml version="1.0" encoding="utf-8"?>
<!-- Generator: Adobe Illustrator 24.2.3, SVG Export Plug-In . SVG Version: 6.00 Build 0)  -->
<svg version="1.1" id="Layer_1" xmlns="http://www.w3.org/2000/svg" xmlns:xlink="http://www.w3.org/1999/xlink" x="0px" y="0px"
	 viewBox="0 0 900 1068" style="enable-background:new 0 0 900 1068;" xml:space="preserve">
<g>
	<path d="M-0.5,263.9c4-21.7,9.9-42.9,20.2-62.6c28.5-54.1,71.2-90.5,131.7-103.9c49.1-10.9,95.3-0.4,139.5,21.7
		c43.2,21.5,78.3,53.1,109.8,89.1c17.2,19.6,32.8,40.4,47.7,61.8c3.7,5.4,4.3,5.3,7.8,0c41-61.8,94.4-110,159.4-145.5
		c33.4-18.2,68.3-32.5,105.9-39.3c34-6.1,66.6-2.2,95.1,18.5c21.9,16,38.1,37.6,51.6,61c16.9,29.3,25.2,61.3,29.3,94.5
		c0.6,4.7,1.4,9.5,2.1,14.2c0,27.2,0,54.5,0,81.7c-2.8,16.6-5,33.2-9.1,49.5c-14.9,59.5-42,112.7-82.1,159.2
		c-17.9,20.8-37.9,39.6-58,58.3c-37,34.4-69.8,72.5-95.3,116.2c-16,27.3-27.8,56.8-40.1,85.9c-17,40.3-29.8,82-42.9,123.6
		c-6.4,20.2-19.2,33.5-40.1,36.8c-22.1,3.4-40.7-4.6-54.1-22.7c-4.7-6.3-9-12.4-15.5-17c-6.5-4.6-10.5-11.4-14-18.5
		c-40.8-83.7-92.6-159.9-155-229c-39.2-43.4-82.9-81.7-127.9-118.8c-45.4-37.4-86.6-79.2-119-128.8C23.1,414.3,6.8,376.1,0.3,334
		c-0.1-1-0.5-1.9-0.8-2.9C-0.5,308.7-0.5,286.3-0.5,263.9z M857.3,313c0.2-19.9-2.4-39.5-5-59.2c-4.8-36.3-18.8-68.3-41.7-96.8
		c-17.9-22.3-40.2-33-68.6-30.7c-19.5,1.6-38.1,7.1-56.3,14.2c-91.1,35.9-161.5,95.7-209.8,181.1c-6.4,11.3-12.6,22.8-18.6,34.3
		c-2.3,4.3-4,4.3-6.4,0.2c-3-5-6.1-9.9-9.3-14.8c-28.2-44.5-57.6-88.2-94.9-125.9c-32.8-33.1-69.7-59.6-115.3-71.9
		c-46.5-12.5-90.3-6.4-128.3,24.1c-48.8,39.2-66.4,91.6-59.6,152.8c4.4,39.2,19.7,74.5,41.2,107.2c31.2,47.5,71,87.3,115.1,122.6
		c84.7,67.6,157.9,145.7,218.3,235.7c25.7,38.3,48.5,78.3,68.8,119.7c1.9,3.8,3.6,8.1,8.5,8.4c11.1,0.6,16.3,5.6,14,17
		c-0.1,0.4,0.1,0.8,0.1,1.2c1.2,4.9,6.3,8.9,11.3,9.3c5.7,0.4,6.2-3.9,7.4-7.7c10-30.8,19.1-62,30.5-92.4
		c15.9-42.6,32.8-85,55.4-124.4c26.3-45.7,60.6-85.6,99-121.7c18-16.9,36-33.6,52.7-51.8C826,478.4,855.8,401.3,857.3,313z"/>
</g>
</svg>
