<?xml version="1.0" encoding="utf-8"?>
<!-- Generator: Adobe Illustrator 24.2.3, SVG Export Plug-In . SVG Version: 6.00 Build 0)  -->
<svg version="1.1" id="Layer_1" xmlns="http://www.w3.org/2000/svg" xmlns:xlink="http://www.w3.org/1999/xlink" x="0px" y="0px"
	 viewBox="0 0 900 1068" style="enable-background:new 0 0 900 1068;" xml:space="preserve">
<g>
	<path d="M899.5,686.2c-3.3,7.3-9.2,10.9-16.8,12.9c-47.7,12.6-95.2,25.6-142.9,38.2c-4.6,1.2-6.9,3.4-8.1,8.1
		c-12.6,47-25.4,94-38.2,141c-0.5,1.9-1.1,3.9-1.7,5.8c-2.7,8.3-8.6,13.3-16.2,13.7c-8.8,0.5-15-3.4-18.4-12.3
		c-5.4-14.2-10.5-28.5-15.7-42.7c-8.2-22.5-16.5-45-24.5-67.6c-1.8-5-4.2-7.1-9.8-7.1c-107.3,0.2-214.5-0.5-321.8,0.6
		c-68.9,0.7-137.8,0.4-206.7,0.6c-5.4,0-9.1,0.3-10.7,7c-1.8,7.8-10.6,12.7-18.1,11.8c-8.6-1-15.4-7.5-16.1-16
		c-0.3-4-1.4-7.1-4-10.2c-5.3-6.4-5.3-15-0.2-21.6c2.2-2.9,3.3-5.7,3.3-9.3c-0.3-42.1-0.2-84.3-0.7-126.4c-0.4-29.3-1-58.7-2.4-88
		c-2.2-45.9-3.6-91.8-3.4-137.7c0-4-0.5-6.7-5.4-6.3c-9.7,0.8-16.4-3.7-20.6-12.3c0-4,0-8,0-12c4.6-8.8,12.1-12.3,21.7-12
		c3.1,0.1,5.4-0.5,5.5-4.5c1.1-32.7,6.2-65.2,4.7-98c-0.3-6-0.9-11.9-1-17.9c-0.1-4-1.8-5.1-5.5-5.1c-6.1,0-11.2-2.4-14.9-7.5
		c-7.1-9.9-3-23.7,8.7-27.3c4.3-1.3,6.6-3,7.7-7.5c2-8,8.6-12.6,16.8-12.8c7.4-0.2,14.7,4.4,16.9,11.9c1.6,5.5,4.1,7.1,9.7,7
		c226.3-0.1,452.7-0.1,679,0c5.3,0,7.7-1,8.2-7c0.7-8.2,9.6-14.2,18.4-13.8c8.4,0.4,15.7,7.1,16.6,15.4c0.3,2.6,0.2,5.2,0.2,7.8
		c0,97.5-0.1,195,0.1,292.5c0,29.4,0.5,58.7,1.2,88.1c0.4,18.8,1.6,37.5,2.3,56.2c0.2,6.1,2.5,9.4,8.7,11.6
		c26.6,9.3,52.9,19.3,79.4,28.8c6.8,2.4,12,6.2,14.6,13C899.5,679,899.5,682.6,899.5,686.2z M454.7,740.1c0-0.1,0-0.1,0-0.2
		c46.5,0,93.1,0,139.6,0.1c4.7,0,6.6-0.6,4.6-6c-11.1-29.9-22-60-33-90c-9.2-25.1-18.4-50.2-27.5-75.4c-2.7-7.5-2.3-14.7,3.6-20.6
		c5.9-5.9,13-6.5,20.5-3.6c1.3,0.5,2.6,1,3.9,1.4c62,22.7,124.1,45.5,186.1,68.2c7.6,2.8,7.8,2.7,7.5-5.2
		c-1.1-31.1-2.6-62.2-2.5-93.4c0.1-43.1-0.1-86.3,0-129.4c0-4.7-1.1-5.9-5.8-4.7c-25.5,6.5-51.3,12-77.4,15.8
		c-39,5.6-78.1,8.4-117.5,8c-37.5-0.3-75-1.4-112.5-3.8c-22.5-1.4-45-2.3-67.5-4c-41.6-3.1-83.3-4.6-125-5.7
		c-29.7-0.8-59.5,1.5-89.2,0.3c-30.3-1.2-60.5-3.9-90.6-7.8c-9.5-1.2-9.3-1.5-9.4,8c-0.6,59.5,3,118.9,4.6,178.4
		c1,37.3,1.2,74.7,1.6,112c0.2,17.4,0.2,34.8,0,52.1c-0.1,4.9,1.5,6.7,6.5,6.6c40.9-0.8,81.8,1.1,122.7,0.2
		c40.1-0.9,80.3-0.3,120.4-1.1C364,739.5,409.4,740.1,454.7,740.1z M671.5,827.6c1.1-3.1,1.8-4.7,2.3-6.3
		c8.9-32.7,17.9-65.4,26.6-98.2c2.5-9.2,7.6-14.7,17-17.1c25.3-6.4,50.5-13.3,75.8-20.1c9-2.4,17.9-4.9,27.2-7.4
		c-1.7-2.5-3.8-2.6-5.6-3.3c-60.3-22.1-120.7-44.2-181-66.3c-14.4-5.3-28.9-10.5-43.3-15.7c-1.2-0.4-2.8-1.7-3.8-0.1
		c-0.5,0.7,0.1,2.3,0.4,3.4c0.4,1.3,0.9,2.7,1.3,4c23.4,64.1,46.9,128.2,70.3,192.3C662.8,803.8,666.9,815,671.5,827.6z
		 M122.2,316.9c19.1,0,33.8-14.7,33.8-33.8c0-18.9-14.9-34-33.7-34c-19.2-0.1-34.1,15-34.1,34.3C88.3,302.3,103.1,316.9,122.2,316.9
		z M226.1,316.9c19.1,0.1,34-14.5,34.2-33.4c0.2-19.2-14.8-34.4-33.9-34.4c-18.9,0-33.8,14.9-33.8,33.9
		C192.5,302.1,207.1,316.8,226.1,316.9z M330.4,316.9c19.1,0.1,34-14.5,34.2-33.4c0.1-19.2-14.9-34.4-34-34.4
		c-18.9,0-33.7,14.9-33.8,33.9C296.7,302.1,311.3,316.8,330.4,316.9z M757.6,282.2c0-18.9-0.1-37.9,0.1-56.8c0-4.5-1.1-6.5-6-6.4
		c-4.7,0.1-6.7,1.2-6.7,6.4c0.2,38.1,0.1,76.2,0.1,114.2c0,3-0.3,6.5,4.4,5.7c3.5-0.6,8.4,1.9,8.2-5.6
		C757.3,320.5,757.6,301.3,757.6,282.2z"/>
</g>
</svg>
