<?xml version="1.0" encoding="utf-8"?>
<!-- Generator: Adobe Illustrator 24.2.3, SVG Export Plug-In . SVG Version: 6.00 Build 0)  -->
<svg version="1.1" id="Layer_1" xmlns="http://www.w3.org/2000/svg" xmlns:xlink="http://www.w3.org/1999/xlink" x="0px" y="0px"
	 viewBox="0 0 900 1068" style="enable-background:new 0 0 900 1068;" xml:space="preserve">
<g>
	<path d="M900.5,1056.3c-4.6,9.7-12.8,12.1-22.8,12.1c-129.9-0.1-259.7-0.1-389.6-0.1c-154.5,0-308.9,0-463.4,0
		c-3.6,0-7.2,0.2-10.8-0.7c-9.1-2.1-14.1-8.1-14.4-17.4c0-1.8,0-3.6,0-5.4c0-248.1,0-496.2,0-744.2c0-3.4-0.4-6.8,0.6-10.2
		c2.4-8.2,9-12.7,19.5-12.8c21.6-0.1,43.2,0,64.8,0c11.2,0,22.4,0,33.6,0c9.1,0,9.1,0,9.1-8.9c0-50.9,0-101.7,0-152.6
		c0-5.8,0-11.6,0-17.4c0.1-7.7,3.2-13.8,9.6-18.3c35.2-25,70.5-50.1,105.6-75.3c5.3-3.8,10.6-5.5,17.2-5.5
		c125.3,0.1,250.5,0.2,375.8-0.1c10.7,0,19.1,2.8,27.6,9c32.5,23.7,65.3,47,98.2,70.1c8.8,6.2,12.4,13.9,12.4,24.3
		c-0.2,54.5-0.1,108.9-0.1,163.4c0,8.9,0,8.9,8.9,8.9c32.2,0,64.4,0.1,96.6,0c9.6,0,17.3,2.8,21.5,12.1
		C900.5,543.7,900.5,800,900.5,1056.3z M450.9,460.8c-136.9,0-273.7,0-410.6,0c-8.8,0-8.8,0-8.8,8.9c0,184,0,368,0,552
		c0,8.9,0,8.9,8.8,8.9c273.3,0,546.7,0,820,0c8.8,0,8.8,0,8.8-8.9c0-184,0-368,0-552c0-8.9,0-8.9-8.8-8.9
		C723.8,460.8,587.3,460.8,450.9,460.8z M450.2,126.8c-56.8,0-113.6,0-170.4,0c-8.4,0-8.4,0-8.4,8.1c0,44.8,0,89.7,0,134.5
		c0,8.2,0,8.3,8.5,8.3c113.6,0,227.2,0,340.8,0c8.4,0,8.4,0,8.4-8.3c0-44.8,0-89.7,0-134.5c0-8.1,0-8.1-8.5-8.1
		C563.8,126.8,507,126.8,450.2,126.8z M450.2,423.9c57.6,0,115.2-0.1,172.9,0.1c5.6,0,7.2-1.7,7.1-7.2c-0.2-32-0.2-64.1,0-96.1
		c0-6-1.5-7.9-7.7-7.9c-114.4,0.2-228.9,0.1-343.3,0.1c-7.8,0-7.8,0-7.8,8.2c0.1,31.6,0.2,63.3,0.4,94.9c0,7.8,0.1,7.8,8,7.8
		C336.6,423.9,393.4,423.9,450.2,423.9z M448.5,92.4c56.6,0,113.2-0.1,169.8,0.1c5.4,0,7.4-1.5,7.3-7.1c-0.3-13.4-0.4-26.8,0-40.2
		c0.2-6.2-2.1-7.8-8-7.7c-30,0.2-60,0.1-90,0.1c-82.6,0-165.2,0-247.8,0c-8.4,0-8.4,0-8.4,8.3c0,12.6,0,25.2,0,37.8
		c0,8.7,0,8.7,8.5,8.7C336.1,92.4,392.3,92.4,448.5,92.4z M661.9,164.7c0,35.4,0.1,70.8-0.1,106.2c0,5.3,1.6,7,6.9,6.9
		c22-0.2,44-0.2,66,0c5,0,7-1.3,7-6.7c-0.2-52.4-0.1-104.8,0-157.2c0-3.8-1.2-6.3-4.3-8.5C714.1,89,691.1,72.4,667.9,56
		c-1.5-1.1-3.1-3.5-5-2.5c-2,1-0.9,3.6-0.9,5.5C661.9,94.2,661.9,129.5,661.9,164.7z M238.9,164.9c0-35.4,0-70.8,0-106.2
		c0-1.7,0.8-4-0.9-5c-1.9-1.1-3.2,1.1-4.6,2.1c-23.2,16.4-46.3,32.9-69.6,49.1c-3.5,2.4-5,5-5,9.4c0.1,52.2,0.2,104.4,0,156.7
		c0,5.3,1.7,6.9,6.9,6.9c21.8-0.2,43.6-0.3,65.4,0c6,0.1,8-1.8,7.9-7.9C238.8,235,238.9,200,238.9,164.9z M870.1,368.8
		c0-16.2-0.2-32.4,0.1-48.6c0.1-5.3-1.2-7.3-7-7.3c-28,0.3-56,0.3-84,0c-5.8-0.1-7,1.9-7,7.3c0.5,32.4,0.8,64.8,0.9,97.2
		c0,4.9,1.5,6.6,6.5,6.6c28-0.2,56-0.2,84,0c5,0,6.5-1.6,6.5-6.6C870,401.2,870.1,385,870.1,368.8z M128.2,369.1
		c0-16.4-0.2-32.8,0.1-49.2c0.1-5.1-1.3-7-6.7-7c-27.8,0.2-55.5,0.2-83.3,0c-5.1,0-7,1.3-6.9,6.7c0.4,32.8,0.1,65.6,1,98.3
		c0.1,4.3,1.4,6,5.9,6c28-0.1,55.9-0.2,83.9,0c4.9,0,6.1-1.8,6.1-6.3C128.1,401.5,128.2,385.3,128.2,369.1z M726.5,320.2
		c-18.3,0-34.6,0-51,0c-3,0-3.7,1.1-1.7,3.5c7.5,8.9,15,17.7,22.4,26.6c1.6,2,2.9,2.4,4.7,0.2C709.1,340.8,717.2,331.2,726.5,320.2z
		 M170.1,320.4c8.9,10.7,17.1,20.5,25.3,30.2c2.8,3.3,4.1,0.2,5.5-1.4c6.9-8.3,13.8-16.7,20.6-25c0.8-1,2.3-1.8,1.3-3.8
		C205.7,320.4,188.6,320.4,170.1,320.4z M160.5,400.4c8.8-10.5,16.9-20.2,25-30c1.1-1.3,1.5-2.8,0.3-4.3
		c-8.1-9.7-16.3-19.4-25.2-30.1C160.5,358,160.5,378.6,160.5,400.4z M739.9,400.3c0-21.8,0-42.4,0-64.2
		c-8.7,10.4-16.6,19.9-24.5,29.2c-1.8,2.2-1.4,3.8,0.2,5.8C723.5,380.5,731.4,390,739.9,400.3z M728.3,416.5
		c-8.9-10.6-16.9-20.2-25.1-29.8c-2.2-2.6-3.9-0.7-5.3,1c-4.8,5.7-9.6,11.3-14.2,17.1c-2.9,3.7-6.7,6.7-9,11.7
		C692.5,416.5,709.6,416.5,728.3,416.5z M226.9,416.8c-9.2-11.1-17.2-20.8-25.1-30.5c-1.4-1.7-2.4-1.7-3.8,0
		c-7.6,9.1-15.2,18.1-22.8,27.1c-1.6,1.9-1.6,3.4,1.3,3.4C192.7,416.9,208.9,416.8,226.9,416.8z M662.3,400
		c8.9-10.7,16.8-20.4,24.8-30c1.1-1.3,1-2.6,0-3.8c-8-9.8-16.1-19.5-24.8-30.1C662.3,357.9,662.3,378.2,662.3,400z M238.5,338.5
		c-0.5-0.1-0.9-0.3-1.4-0.4c-7.8,9.3-15.5,18.6-23.3,27.9c-1.1,1.3-1.6,2.6-0.3,4.2c8.1,9.5,16.1,19,25,29.6
		C238.5,378.4,238.5,358.4,238.5,338.5z"/>
	<path d="M421.6,602.9c35.4,0,70.8,0.1,106.2-0.1c4.5,0,7.9,1.3,11.1,4.5c22.6,22.7,45.2,45.3,68,67.8c3.3,3.2,4.6,6.6,4.6,11.1
		c-0.1,37.6-0.1,75.3,0,112.9c0,4.6-1.5,7.9-4.7,11c-23,22.6-45.8,45.3-68.6,68.1c-3.1,3.1-6.3,4.2-10.6,4.2
		c-70.6-0.1-141.2-0.1-211.8,0c-4.5,0-7.9-1.2-11.1-4.4c-22.8-23-45.8-45.9-68.8-68.7c-3.3-3.2-4.5-6.6-4.5-11.1
		c0.1-37.4,0.1-74.9,0-112.3c0-4.3,1.1-7.5,4.3-10.6c23.3-22.8,46.5-45.7,69.6-68.7c3-3,6.2-3.7,10.2-3.7
		C350.8,603,386.2,602.9,421.6,602.9z M420.7,860.1c32.6,0,65.2-0.1,97.8,0.1c4.1,0,7.2-1.1,10.1-4c18.8-18.8,37.7-37.5,56.8-56.1
		c3-2.9,4.1-6,4.1-10.1c-0.1-31.8-0.1-63.6,0-95.5c0-4.1-1.1-7.2-4.1-10.1c-19.2-18.7-38.2-37.6-57.2-56.5c-2.6-2.6-5.3-3.7-9-3.7
		c-65.2,0.1-130.4,0.1-195.6,0c-3.7,0-6.4,1.1-9,3.7c-18.8,18.8-37.7,37.5-56.8,56.1c-3.3,3.2-4.6,6.6-4.6,11.1
		c0.1,31.4,0.2,62.8,0,94.3c0,4.8,1.6,8.2,5,11.6c18.4,18.1,36.7,36.3,54.9,54.6c3.4,3.4,6.9,4.7,11.6,4.7
		C356.7,860,388.7,860.1,420.7,860.1z"/>
</g>
</svg>
